<?xml version="1.0" encoding="UTF-8" standalone="no" ?>
<!DOCTYPE svg PUBLIC "-//W3C//DTD SVG 1.1//EN" "http://www.w3.org/Graphics/SVG/1.1/DTD/svg11.dtd">
<svg xmlns="http://www.w3.org/2000/svg" xmlns:xlink="http://www.w3.org/1999/xlink" version="1.1" width="500" height="500" viewBox="0 0 500 500" xml:space="preserve">
<desc>Created with Fabric.js 4.6.0</desc>
<defs>
</defs>
<g transform="matrix(1.35 0 0 1.35 228.36 204.89)" id="ao4iSri-zzOr9uT2d4loj"  >
<path style="stroke: none; stroke-width: 1; stroke-dasharray: none; stroke-linecap: butt; stroke-dashoffset: 0; stroke-linejoin: miter; stroke-miterlimit: 4; fill: rgb(150,100,26); fill-rule: nonzero; opacity: 1;" vector-effect="non-scaling-stroke"  transform=" translate(-171.47, -156.08)" d="M 171.367188 157.332031 C 171.640625 156.734375 171.621094 155.863281 171.417969 154.824219 C 171.523438 155.65625 171.519531 156.496094 171.367188 157.332031" stroke-linecap="round" />
</g>
<g transform="matrix(1.35 0 0 1.35 293.21 184.84)" id="HnoeG_xtoXAK7px0TC5YE"  >
<path style="stroke: none; stroke-width: 1; stroke-dasharray: none; stroke-linecap: butt; stroke-dashoffset: 0; stroke-linejoin: miter; stroke-miterlimit: 4; fill: rgb(150,100,26); fill-rule: nonzero; opacity: 1;" vector-effect="non-scaling-stroke"  transform=" translate(-219.42, -141.25)" d="M 219.710938 141.683594 C 219.511719 141.40625 219.3125 141.121094 219.125 140.824219 C 219.324219 141.179688 219.523438 141.46875 219.710938 141.683594" stroke-linecap="round" />
</g>
<g transform="matrix(1.35 0 0 1.35 293.63 185.47)" id="IdvxsfTvuKHHoHzQGtt6g"  >
<path style="stroke: none; stroke-width: 1; stroke-dasharray: none; stroke-linecap: butt; stroke-dashoffset: 0; stroke-linejoin: miter; stroke-miterlimit: 4; fill: rgb(150,100,26); fill-rule: nonzero; opacity: 1;" vector-effect="non-scaling-stroke"  transform=" translate(-219.73, -141.72)" d="M 219.710938 141.683594 C 219.726562 141.703125 219.742188 141.730469 219.757812 141.75 C 219.753906 141.746094 219.753906 141.738281 219.75 141.730469 C 219.738281 141.71875 219.722656 141.699219 219.710938 141.683594" stroke-linecap="round" />
</g>
<g transform="matrix(1.35 0 0 1.35 250 256.27)" id="gTiCXL5xIze7puTixElap" clip-path="url(#CLIPPATH_3)"  >
<clipPath id="CLIPPATH_3" >
	<path transform="matrix(1 0 0 1 -0.01 -2.11) translate(-187.46, -192.5)" id="a" d="M 7.839844 10 L 367.089844 10 L 367.089844 375 L 7.839844 375 Z M 7.839844 10" stroke-linecap="round" />
</clipPath>
<path style="stroke: none; stroke-width: 1; stroke-dasharray: none; stroke-linecap: butt; stroke-dashoffset: 0; stroke-linejoin: miter; stroke-miterlimit: 4; fill: rgb(150,100,26); fill-rule: nonzero; opacity: 1;" vector-effect="non-scaling-stroke"  transform=" translate(0, 0)" d="M -15.56062 -37.18081 C -15.56453 -37.16128 -15.56843 -37.14175 -15.57624 -37.12222 C -15.58015 -37.09878 -15.59186 -37.06753 -15.603580000000001 -37.04409 C -15.693420000000001 -36.837059999999994 -15.896550000000001 -36.715959999999995 -16.107490000000002 -36.715959999999995 C -16.15827 -36.715959999999995 -16.212960000000002 -36.72767999999999 -16.263740000000002 -36.7433 C -16.22858 -36.92689 -16.181710000000002 -37.10658 -16.107490000000002 -37.26674 C -17.87311 -38.01283 -20.326240000000002 -38.95033 -22.87702 -39.72377 C -22.9278 -39.56752 -22.982490000000002 -39.38783 -23.04108 -39.19643 C -23.181710000000002 -39.239399999999996 -23.29889 -39.333149999999996 -23.3653 -39.46596 C -23.43561 -39.59877 -23.451240000000002 -39.75112 -23.40436 -39.891740000000006 L -23.2403 -40.39565 C -24.587960000000002 -40.96987 -31.01764 -41.81752 -35.13874 -41.81752 C -36.43561 -41.81752 -37.048899999999996 -41.72768 -37.33405 -41.65346 C -37.38093 -41.641740000000006 -37.431709999999995 -41.63393 -37.47858 -41.63393 C -37.58014 -41.63393 -37.685610000000004 -41.66518 -37.77546 -41.71987 C -37.90437 -41.8019 -37.99421 -41.93471 -38.021550000000005 -42.08706 C -38.54108000000001 -44.87612 -38.94733000000001 -47.73159 -39.23639000000001 -50.57534 C -39.25983000000001 -50.801899999999996 -39.146550000000005 -51.016749999999995 -38.94342000000001 -51.122209999999995 C -38.87701000000001 -51.15736999999999 -38.80279000000001 -51.16909 -38.73248000000001 -51.17299 C -38.71685000000001 -50.9933 -38.70514000000001 -50.81361 -38.68560000000001 -50.63002 C -35.36138000000001 -47.79018 -31.64654000000001 -45.95424 -27.736380000000008 -45.61049 C -24.869190000000007 -45.35658 -21.62700000000001 -45.301899999999996 -18.16607000000001 -45.47377 C -17.90045000000001 -44.993300000000005 -17.64654000000001 -44.50893 -17.412160000000007 -44.024550000000005 C -17.60357000000001 -44.501110000000004 -17.806690000000007 -44.98939000000001 -18.013720000000006 -45.48158000000001 C -17.865280000000006 -45.48939000000001 -17.709030000000006 -45.50502000000001 -17.560600000000008 -45.51283000000001 C -17.330130000000008 -45.09486000000001 -17.11529000000001 -44.67689000000001 -16.900440000000007 -44.23158000000001 C -16.177780000000006 -42.41517000000001 -15.736380000000008 -41.03627000000001 -15.505910000000007 -39.85658000000001 C -15.388720000000006 -38.92689000000001 -15.404350000000008 -38.02845000000001 -15.560600000000008 -37.180800000000005 z M -38.90437 -39.82144 C -38.9864 -39.70425 -39.1114 -39.630030000000005 -39.25593 -39.598780000000005 C -39.29109 -39.778470000000006 -39.32234 -39.96206000000001 -39.35749 -40.14175 C -45.06843 -39.28237 -49.361399999999996 -37.98941 -64.05279999999999 -31.778470000000002 C -64.26373999999998 -31.688630000000003 -64.48248999999998 -31.59878 -64.69733 -31.508940000000003 C -65.55279999999999 -31.99331 -66.40436 -32.473780000000005 -67.26374 -32.95816 C -74.33796 -36.92691 -81.65046 -41.02847 -86.56061 -48.196439999999996 C -91.18169999999999 -54.946439999999996 -94.67389 -62.43472 -96.97467 -70.45815999999999 C -96.91217 -70.91129 -96.84576 -71.37612999999999 -96.79108000000001 -71.80582 C -96.54889000000001 -73.55973 -96.33405 -75.15348 -96.14655 -76.53629 C -95.98639 -76.44645 -95.84186000000001 -76.3527 -95.6778 -76.26675999999999 C -92.28327 -74.30972999999999 -82.01764 -72.28629 -81.79108000000001 -78.00504 C -75.91608000000001 -76.21597999999999 -73.11921000000001 -79.42690999999999 -74.95514000000001 -84.15737999999999 C -74.71295000000002 -84.48549999999999 -74.48639000000001 -84.80971999999998 -74.27155000000002 -85.13004 C -74.15827000000002 -85.2902 -74.05671000000002 -85.45425999999999 -73.95124000000001 -85.61832 C -68.19343 -83.93082 -63.52546000000001 -83.07145 -60.08405000000001 -83.07145 C -58.93952000000001 -83.07145 -57.91999000000001 -83.16911 -57.05280000000001 -83.35661 C -55.81452000000001 -83.63005 -54.548890000000014 -84.02849 -53.298890000000014 -84.54802000000001 C -53.228580000000015 -84.57146 -53.15826000000001 -84.58708000000001 -53.08405000000001 -84.58708000000001 C -52.98249000000001 -84.58708000000001 -52.87702000000001 -84.55583000000001 -52.78327000000001 -84.49333000000001 C -52.693430000000006 -84.43864000000002 -52.630930000000006 -84.34880000000001 -52.58796000000001 -84.25114000000002 C -52.755930000000006 -84.18083000000001 -52.91999000000001 -84.10270000000003 -53.08405000000001 -84.03239000000002 C -52.91217000000001 -72.55973000000002 -48.12311000000001 -60.403480000000016 -41.05280000000001 -52.895670000000024 C -41.06842000000001 -53.18864000000002 -41.080140000000014 -53.481610000000025 -41.09577000000001 -53.77848000000002 C -40.94733000000001 -53.610510000000026 -40.80280000000001 -53.43864000000002 -40.64655000000001 -53.274570000000026 C -40.56061000000001 -53.180820000000026 -40.50592000000001 -53.055820000000026 -40.49811000000001 -52.930820000000026 C -40.361390000000014 -50.60660000000003 -40.13874000000001 -48.34098000000002 -39.84186000000001 -46.19645000000003 C -39.58405000000001 -44.31754000000003 -39.24420000000001 -42.37223000000003 -38.81452000000001 -40.25114000000003 C -38.78327000000001 -40.10270000000003 -38.818430000000006 -39.94645000000003 -38.90436000000001 -39.82145000000003 z M -66.65437 -30.67691 C -69.93953 -29.27457 -73.68953 -27.65738 -78.02156 -25.77457 C -86.53327999999999 -22.08316 -95.89264999999999 -18.934730000000002 -105.28717999999999 -16.07145 C -102.63092999999999 -30.55973 -99.46686999999999 -52.46598 -97.43561999999999 -67.11832 C -97.41217999999999 -67.30582 -97.38873999999998 -67.47379 -97.36139999999999 -67.66129 C -97.15436999999999 -67.63004 -96.97467999999999 -67.49722999999999 -96.90826999999999 -67.28629 C -95.04498999999998 -61.54019999999999 -92.43951999999999 -55.848789999999994 -89.15826999999999 -50.37612999999999 C -86.59967999999999 -46.106599999999986 -83.75201999999999 -42.70424999999999 -80.45513999999999 -39.97768999999999 C -76.84966999999999 -36.99721999999999 -72.66216999999999 -34.67299999999999 -68.61138999999999 -32.42690999999999 L -68.49029999999999 -32.360499999999995 C -67.77936 -31.965969999999995 -67.08013999999999 -31.559719999999995 -66.37701999999999 -31.157369999999993 C -66.27154999999999 -31.094869999999993 -66.19733 -31.001119999999993 -66.15045999999998 -30.89173999999999 C -66.31842999999998 -30.81751999999999 -66.48248999999998 -30.747209999999992 -66.65436999999999 -30.676899999999993 z M 179.56438 175.41294 C 177.32219 164.02622 170.44329 122.8895 163.72063 103.45590999999999 C 156.24797 82.53012999999999 141.85344 40.35434999999999 133.54876000000002 19.23715999999999 C 104.97454000000002 -53.42690000000002 64.43548000000001 -48.735500000000016 64.33001000000002 -48.719870000000014 C 63.59954000000002 -48.837060000000015 62.85345000000002 -48.91128000000001 62.09173000000001 -48.95034000000001 C 62.048760000000016 -48.80581000000001 61.99798000000001 -48.63003000000001 61.93939000000001 -48.43081000000001 C 61.82220000000001 -48.46987000000001 61.70892000000001 -48.528470000000006 61.64252000000001 -48.630030000000005 C 61.568300000000015 -48.72769 61.53315000000001 -48.848780000000005 61.537050000000015 -48.96987000000001 C 54.66596000000001 -48.87221000000001 44.08002000000002 -48.450340000000004 42.841740000000016 -47.68081000000001 C 42.841740000000016 -47.68081000000001 42.81440000000001 -47.65737000000001 42.76362000000002 -47.57534000000001 C 42.66206000000002 -47.415180000000014 42.48237000000002 -47.313620000000014 42.29487000000002 -47.313620000000014 C 42.27925000000002 -47.313620000000014 42.26362000000002 -47.313620000000014 42.24800000000002 -47.313620000000014 C 42.16988000000002 -47.32534000000001 42.09566000000002 -47.337060000000015 42.01753000000002 -47.344870000000014 C 42.11909000000002 -47.55971000000002 42.21284000000002 -47.73940000000002 42.294870000000024 -47.868310000000015 C 38.740180000000024 -48.157370000000014 35.51753000000002 -49.24722000000001 32.974560000000025 -52.02065000000002 C 32.732370000000024 -52.282370000000014 32.505810000000025 -52.563620000000014 32.287060000000025 -52.86049000000002 C 32.44722000000002 -52.66908000000002 32.44722000000002 -52.34096000000002 32.33394000000003 -51.91127000000002 C 31.958940000000027 -52.35268000000002 31.587850000000028 -52.86439000000002 31.173780000000026 -53.51283000000002 C 30.037060000000025 -55.52845000000002 28.806590000000025 -59.45814000000002 27.939400000000028 -63.83705000000002 C 28.091740000000026 -64.00502000000002 28.251900000000028 -64.16908000000002 28.404240000000026 -64.34486000000003 C 30.357370000000028 -66.60658000000002 32.107370000000024 -69.13392000000003 33.63080000000003 -71.89564000000003 C 33.79096000000003 -72.18470000000003 33.94330000000003 -72.49330000000003 34.09564000000003 -72.79017000000003 C 42.25580000000003 -77.36439000000003 49.21283000000003 -83.23158000000004 54.25189000000003 -89.80970000000003 C 54.310480000000034 -89.88782000000003 54.39251000000003 -89.95033000000004 54.48626000000003 -89.98548000000004 C 55.63470000000003 -90.44251000000004 56.79876000000003 -90.86048000000004 57.92376000000003 -91.26282000000003 C 64.33392000000003 -93.55188000000004 70.38860000000003 -95.71204000000003 72.52532000000002 -105.06360000000004 C 75.26360000000003 -116.48157000000003 68.29485000000003 -123.84094000000003 61.958910000000024 -128.00891000000004 C 61.79875000000003 -128.11438000000004 61.708910000000024 -128.29407000000003 61.708910000000024 -128.48157000000003 C 61.732350000000025 -129.53235000000004 61.78703000000002 -130.65735000000004 61.83782000000002 -131.79798000000002 C 62.00579000000002 -135.42298000000002 62.197200000000024 -139.52454000000003 61.333910000000024 -141.07532000000003 C 58.34953000000002 -147.42688000000004 54.076100000000025 -150.54407000000003 46.583910000000024 -151.83704000000003 C 46.41203000000002 -151.86438000000004 46.26750000000003 -151.96985000000004 46.18938000000002 -152.11829000000003 C 46.10735000000002 -152.27063000000004 46.10344000000002 -152.44642000000002 46.16985000000002 -152.60657000000003 C 47.79094000000002 -156.27844000000005 48.15813000000002 -161.45032000000003 36.501880000000014 -168.91907000000003 C 32.88079000000001 -171.04798000000002 29.005790000000015 -172.21594000000005 25.59954000000001 -172.21594000000005 C 24.040950000000013 -172.21594000000005 22.622980000000013 -171.96203000000006 21.50579000000001 -171.48547000000005 C 21.43938000000001 -171.45422000000005 21.361260000000012 -171.43859000000006 21.28704000000001 -171.43859000000006 C 21.146420000000013 -171.43859000000006 21.00579000000001 -171.48937000000006 20.904230000000013 -171.59484000000006 C 20.74407000000001 -171.74718000000007 20.689390000000014 -171.98547000000005 20.771420000000013 -172.19250000000005 C 20.794860000000014 -172.25500000000005 20.826110000000014 -172.31359000000006 20.865170000000013 -172.36047000000005 C 20.533140000000014 -179.93469000000005 11.740170000000013 -183.38781000000006 3.6151700000000133 -183.38781000000006 C -0.5645199999999866 -183.38781000000006 -4.115299999999987 -182.39562000000006 -5.427799999999987 -180.86437000000006 C -5.537169999999987 -180.73937000000006 -5.693419999999987 -180.67296000000007 -5.849669999999987 -180.67296000000007 C -5.966859999999987 -180.67296000000007 -6.080139999999988 -180.70812000000006 -6.181699999999987 -180.7823300000001 C -9.451229999999986 -183.2081100000001 -13.232479999999986 -184.4385800000001 -17.423889999999986 -184.4385800000001 C -27.349669999999985 -184.4385800000001 -37.16997999999998 -177.5088900000001 -40.93560999999998 -170.80577000000008 C -41.02154999999998 -170.66124000000008 -41.16216999999998 -170.55968000000007 -41.326239999999984 -170.5323300000001 C -42.36920999999998 -170.3526400000001 -43.35357999999999 -170.3409200000001 -44.40435999999998 -170.32530000000008 C -47.263739999999984 -170.2901400000001 -50.50591999999998 -170.2510800000001 -56.056699999999985 -166.6026400000001 C -60.111389999999986 -163.9424800000001 -63.298889999999986 -157.9620100000001 -63.63872999999998 -152.3799800000001 C -63.81841999999998 -149.4424800000001 -63.30669999999998 -145.3252900000001 -59.85747999999998 -142.4034200000001 C -59.73638999999998 -142.3018600000001 -59.66606999999998 -142.1573300000001 -59.658259999999984 -142.0010800000001 C -59.65434999999999 -141.8448300000001 -59.712949999999985 -141.6963900000001 -59.82231999999998 -141.58702000000008 C -60.57231999999998 -140.84874000000008 -61.32622999999998 -139.87218000000007 -62.130909999999986 -138.60655000000008 C -62.232469999999985 -138.44249000000008 -62.40824999999999 -138.34874000000008 -62.59574999999999 -138.34874000000008 C -62.65043999999999 -138.34874000000008 -62.701219999999985 -138.35655000000008 -62.74808999999999 -138.37218000000007 C -63.80277999999999 -138.67296000000007 -64.89262 -138.82921000000007 -65.98245999999999 -138.82921000000007 C -67.43167999999999 -138.82921000000007 -68.94729999999998 -138.55577000000008 -70.48245999999999 -138.01671000000007 C -70.54104999999998 -137.99327000000008 -70.60354999999998 -137.98546000000007 -70.66604999999998 -137.98546000000007 C -70.70510999999999 -137.98546000000007 -70.74807999999999 -137.98937000000006 -70.78713999999998 -137.99718000000007 C -75.75588999999998 -139.11437000000006 -79.31838999999998 -139.71202000000008 -80.30275999999998 -139.73156000000006 C -80.76369999999997 -139.73156000000006 -81.34572999999997 -139.57531000000006 -82.02541999999998 -139.28234000000006 C -82.25978999999998 -139.38000000000005 -82.49807999999999 -139.47375000000005 -82.74025999999998 -139.56750000000005 C -84.98244999999997 -140.42297000000005 -87.50587999999998 -141.20813000000004 -89.91994999999997 -142.03234000000006 C -94.20900999999998 -143.69640000000007 -98.89650999999998 -139.22765000000007 -103.87697999999997 -130.82921000000007 C -107.00197999999997 -125.55577000000008 -107.85744999999997 -127.43858000000007 -110.07619999999997 -123.96593000000007 C -111.98244999999997 -120.98156000000007 -109.02541999999997 -121.50890000000007 -112.93557999999997 -115.92687000000006 C -114.58791999999997 -113.57140000000007 -115.62698999999998 -114.05187000000006 -118.81057999999997 -110.59093000000007 C -121.99026999999997 -107.12999000000008 -119.84182999999997 -105.24327000000007 -120.40823999999998 -100.41124000000008 C -122.51760999999998 -98.38780000000008 -122.73635999999998 -96.00108000000007 -121.86917999999997 -93.82921000000007 C -130.74417999999997 -78.57921000000007 -145.60354999999998 -49.45812000000007 -150.83792999999997 -41.20812000000007 C -162.43558999999996 -21.239370000000072 -193.15042999999997 36.74890999999993 -172.86917999999997 56.33875999999993 C -167.11917999999997 61.73719999999993 -160.70120999999997 62.24891999999993 -154.31448999999998 60.194229999999926 C -136.83792999999997 57.491099999999925 -93.83792999999997 45.858289999999926 -62.826209999999975 36.61219999999993 C -62.802769999999974 36.42860999999993 -62.771519999999974 36.25281999999993 -62.748089999999976 36.07313999999993 C -62.64652999999998 36.08485999999993 -62.54886999999998 36.12001999999993 -62.46292999999998 36.19032999999993 C -62.32229999999998 36.31532999999993 -62.25198999999998 36.498919999999934 -62.27542999999998 36.686419999999934 C -63.72073999999998 47.61219999999993 -63.599649999999976 64.05750999999994 -59.912149999999976 74.35829999999993 C -57.935589999999976 80.69813999999992 -54.974649999999976 86.78016999999993 -52.11136999999998 92.65907999999993 C -49.12698999999998 98.78798999999994 -46.04105999999998 105.12001999999993 -44.01761999999998 111.82704999999993 C -41.09964999999998 121.46376999999993 -40.06448999999998 131.56923999999992 -39.06839999999998 141.34657999999993 C -38.78714999999998 144.06141999999994 -38.525429999999986 146.62391999999994 -38.22464999999998 149.19423999999992 C -37.83011999999998 152.52626999999993 -38.53714999999998 158.1356499999999 -39.22464999999998 163.56142999999992 C -40.09964999999998 170.4793999999999 -41.09183999999998 178.31923999999992 -39.49026999999998 180.1356499999999 C -39.291049999999984 180.36220999999992 -39.06839999999998 180.4637799999999 -38.77932999999998 180.4637799999999 C -38.00588999999998 180.4637799999999 -34.353549999999984 180.5106499999999 -28.83010999999998 180.5848699999999 C -9.490269999999981 180.8270599999999 35.79880000000003 181.40517999999992 69.83395000000003 181.40517999999992 C 95.04879000000003 181.40517999999992 109.36520000000003 181.09267999999992 112.38864000000004 180.47548999999992 C 113.08395000000004 180.33485999999994 113.57223000000003 179.95595999999992 113.88864000000004 179.31532999999993 C 116.78317000000004 173.42079999999993 105.02927000000004 149.47157999999993 95.58395000000004 130.22938999999994 C 93.83004000000004 126.65907999999993 92.13082000000004 123.19813999999994 90.57223000000005 119.95204999999994 C 90.54098000000005 119.88563999999994 90.52145000000004 119.80751999999994 90.51754000000005 119.73329999999994 C 89.94723000000005 105.40516999999994 89.08004000000005 89.34657999999995 87.95113000000005 72.00282999999995 C 87.93160000000005 71.77235999999995 88.06832000000004 71.56532999999995 88.27535000000005 71.47157999999995 C 88.35347000000004 71.63954999999994 88.42379000000004 71.79969999999994 88.50191000000005 71.96766999999994 C 97.91988000000005 92.33875999999994 109.48238000000005 116.82704999999994 112.62691000000005 124.61219999999994 C 117.70504000000005 137.18250999999995 119.63082000000006 169.53407999999996 122.47847000000004 178.27625999999995 C 125.32222000000004 187.01844999999994 181.80659000000003 186.80359999999996 179.56441000000004 175.41297999999995" stroke-linecap="round" />
</g>
<g transform="matrix(1.35 0 0 1.35 195.78 235.76)" id="0lDARx_NdpvroMeT_hxoL"  >
<path style="stroke: none; stroke-width: 1; stroke-dasharray: none; stroke-linecap: butt; stroke-dashoffset: 0; stroke-linejoin: miter; stroke-miterlimit: 4; fill: rgb(0,204,192); fill-rule: nonzero; opacity: 1;" vector-effect="non-scaling-stroke"  transform=" translate(-147.38, -178.9)" d="M 152.6875 205.238281 C 154.179688 194.777344 157.171875 183.566406 159.414062 173.847656 C 160.90625 166.375 164.539062 155.050781 164.859375 154.066406 C 165.175781 153.082031 151.203125 151.585938 149.65625 152.550781 C 148.105469 153.515625 131.390625 194.777344 129.898438 205.238281 C 135.875 205.984375 147.457031 205.238281 152.6875 205.238281" stroke-linecap="round" />
</g>
<g transform="matrix(1.35 0 0 1.35 308.84 235.69)" id="vAK_Crlf47WE6-jGMbiyj"  >
<path style="stroke: none; stroke-width: 1; stroke-dasharray: none; stroke-linecap: butt; stroke-dashoffset: 0; stroke-linejoin: miter; stroke-miterlimit: 4; fill: rgb(0,204,192); fill-rule: nonzero; opacity: 1;" vector-effect="non-scaling-stroke"  transform=" translate(-230.97, -178.85)" d="M 242.230469 173.226562 C 244.109375 163.84375 249.734375 145.078125 249.734375 145.078125 C 249.734375 145.078125 231.929688 145.273438 229.984375 146.484375 C 228.039062 147.695312 214.089844 198.558594 212.210938 211.691406 C 219.71875 212.628906 227.222656 212.628906 233.789062 212.628906 C 235.664062 199.496094 239.417969 185.421875 242.230469 173.226562" stroke-linecap="round" />
</g>
<g transform="matrix(1.35 0 0 1.35 284.92 400.65)" id="Dw2Wvors70C3vkionbkv6"  >
<path style="stroke: none; stroke-width: 1; stroke-dasharray: none; stroke-linecap: butt; stroke-dashoffset: 0; stroke-linejoin: miter; stroke-miterlimit: 4; fill: rgb(0,204,192); fill-rule: nonzero; opacity: 1;" vector-effect="non-scaling-stroke"  transform=" translate(-213.07, -298.43)" d="M 278.554688 314.347656 C 276.921875 310.949219 273.523438 266.199219 272.304688 263.417969 C 266.324219 249.21875 242.378906 252.507812 238.785156 245.980469 C 238.644531 245.726562 238.5 245.472656 238.363281 245.21875 C 235.375 239.988281 230.890625 234.011719 230.144531 228.03125 C 213.703125 228.777344 197.265625 228.03125 180.828125 228.03125 C 163.640625 228.03125 145.804688 224.042969 128.617188 220.308594 C 124.390625 219.386719 121.050781 252.445312 127.03125 269.132812 C 131.082031 282.109375 138.960938 293.488281 142.925781 306.59375 C 146.621094 318.808594 147.289062 331.90625 148.699219 343.871094 C 149.695312 352.335938 143.460938 375.628906 148.691406 375.628906 C 153.925781 375.628906 289.597656 377.746094 299.96875 375.628906 C 309.046875 373.777344 289.988281 338.148438 278.554688 314.347656" stroke-linecap="round" />
</g>
<g transform="matrix(1.35 0 0 1.35 157.24 87.52)" id="c5ZFvhZDgTt9php2-ooaO"  >
<path style="stroke: none; stroke-width: 1; stroke-dasharray: none; stroke-linecap: butt; stroke-dashoffset: 0; stroke-linejoin: miter; stroke-miterlimit: 4; fill: rgb(0,204,192); fill-rule: nonzero; opacity: 1;" vector-effect="non-scaling-stroke"  transform=" translate(-118.89, -69.3)" d="M 134.355469 62.957031 C 131.195312 58.871094 128.011719 56.617188 124.875 55.707031 C 122.136719 54.914062 119.433594 55.148438 116.804688 56.070312 C 114.90625 56.742188 113.046875 57.773438 111.242188 59.042969 C 110.75 59.390625 110.265625 59.75 109.785156 60.132812 C 107.308594 62.082031 105.277344 64.367188 103.976562 66.679688 C 101.867188 70.417969 101.667969 74.214844 104.59375 76.742188 C 105.671875 77.507812 109.546875 80.550781 110.566406 81.433594 C 114.609375 84.292969 122.796875 84.359375 128.679688 79.179688 C 133.621094 74.738281 137.253906 66.707031 134.355469 62.957031" stroke-linecap="round" />
</g>
<g transform="matrix(1.35 0 0 1.35 258.71 71.22)" id="VYM4UrZKhCePMi9kccQpZ"  >
<path style="stroke: none; stroke-width: 1; stroke-dasharray: none; stroke-linecap: butt; stroke-dashoffset: 0; stroke-linejoin: miter; stroke-miterlimit: 4; fill: rgb(0,204,192); fill-rule: nonzero; opacity: 1;" vector-effect="non-scaling-stroke"  transform=" translate(-193.91, -57.25)" d="M 138.195312 46.4375 C 138.351562 46.632812 138.667969 46.46875 138.542969 46.234375 C 135.789062 41.140625 143.710938 38.429688 146.644531 36.03125 C 147.851562 35.039062 148.605469 33.875 149 32.585938 C 149.105469 32.683594 149.28125 32.695312 149.390625 32.539062 C 152.84375 27.570312 161.390625 30.09375 166.449219 29.902344 C 169.808594 29.777344 173.175781 28.636719 175.804688 26.550781 C 176.550781 25.957031 177.132812 25.257812 177.601562 24.480469 C 180.78125 28.050781 186.511719 29.371094 191.039062 29.6875 C 194.257812 29.917969 198.039062 29.664062 201.476562 28.71875 C 201.105469 33.859375 205.429688 39.347656 209.328125 42.148438 C 211.792969 43.921875 214.875 44.171875 217.816406 43.980469 C 218.441406 43.9375 219.070312 43.867188 219.691406 43.785156 C 221.40625 45.8125 221.402344 49.40625 222.019531 51.851562 C 222.839844 55.097656 224.628906 57.734375 227.183594 59.863281 C 229.84375 62.082031 232.867188 63.710938 236.089844 64.957031 C 237.628906 65.550781 239.308594 66.09375 241.027344 66.496094 C 239.976562 69.105469 239.058594 72.089844 239.609375 74.921875 C 240.125 77.566406 241.714844 79.753906 243.136719 81.988281 C 244.597656 84.285156 246.507812 86.269531 248 88.554688 C 248.8125 89.796875 249.457031 91.164062 249.632812 92.652344 C 249.875 94.699219 248.578125 96.261719 247.359375 97.730469 C 247.148438 97.980469 247.429688 98.4375 247.734375 98.210938 C 252.6875 94.578125 249.867188 89.339844 246.875 85.496094 C 244.964844 83.039062 243.140625 80.59375 241.582031 77.894531 C 240.609375 76.199219 240.230469 74.445312 240.289062 72.503906 C 240.355469 70.425781 241.292969 68.644531 241.605469 66.636719 C 243.527344 67.046875 245.480469 67.25 247.335938 67.097656 C 247.796875 67.058594 247.789062 66.4375 247.335938 66.386719 C 239.6875 65.578125 232.363281 63.621094 226.582031 58.226562 C 224.125 55.9375 222.941406 52.855469 222.355469 49.621094 C 222.035156 47.851562 221.679688 45.238281 220.464844 43.679688 C 221.292969 43.558594 222.117188 43.425781 222.9375 43.300781 C 225.003906 42.984375 227.023438 42.96875 229.09375 42.820312 C 229.4375 42.796875 229.558594 42.257812 229.179688 42.1875 C 223.132812 41.015625 216.808594 45.164062 210.894531 42.207031 C 205.972656 39.746094 202.53125 33.925781 201.992188 28.570312 C 203.703125 28.0625 205.316406 27.375 206.710938 26.476562 C 207.035156 26.269531 206.832031 25.699219 206.441406 25.832031 C 204.207031 26.617188 202.109375 27.558594 199.792969 28.117188 C 197.273438 28.730469 194.675781 28.96875 192.085938 28.945312 C 189.519531 28.917969 186.976562 28.484375 184.53125 27.707031 C 181.976562 26.894531 180.039062 25.453125 177.875 23.996094 C 179.046875 21.773438 179.414062 19.0625 179.980469 16.660156 C 180.066406 16.304688 179.519531 16.03125 179.359375 16.398438 C 178.644531 18.003906 178.441406 19.785156 178.007812 21.476562 C 177.394531 23.867188 176.054688 25.542969 174.015625 26.878906 C 170.957031 28.878906 167.203125 29.289062 163.640625 29.128906 C 159.523438 28.941406 151.808594 27.65625 149.164062 31.953125 C 149.4375 30.648438 149.367188 29.234375 149.027344 27.761719 C 148.941406 27.382812 148.292969 27.457031 148.339844 27.855469 C 148.601562 29.917969 148.867188 31.914062 147.773438 33.792969 C 146.746094 35.5625 144.636719 36.628906 142.933594 37.621094 C 140.214844 39.203125 135.492188 42.933594 138.195312 46.4375" stroke-linecap="round" />
</g>
<g transform="matrix(1.35 0 0 1.35 262.62 68.53)" id="yar5zOhOLUmH9rkRVSIX8"  >
<path style="stroke: none; stroke-width: 1; stroke-dasharray: none; stroke-linecap: butt; stroke-dashoffset: 0; stroke-linejoin: miter; stroke-miterlimit: 4; fill: rgb(0,204,192); fill-rule: nonzero; opacity: 1;" vector-effect="non-scaling-stroke"  transform=" translate(-196.8, -55.26)" d="M 207.917969 66.78125 C 208.285156 69.367188 210.285156 70.710938 212.410156 71.929688 C 213.878906 72.769531 215.441406 73.457031 217.003906 74.097656 C 218.6875 74.792969 220.6875 75.160156 222.253906 76.074219 C 222.527344 76.234375 222.738281 75.835938 222.496094 75.652344 C 221.269531 74.722656 219.804688 74.34375 218.375 73.792969 C 216.472656 73.054688 214.609375 72.210938 212.820312 71.234375 C 211.148438 70.320312 209.4375 69.257812 208.835938 67.347656 C 208.40625 65.976562 208.75 64.300781 208.855469 62.902344 C 209.136719 59.230469 209.027344 55.453125 208.082031 51.882812 C 207.230469 48.683594 205.285156 46.058594 202.898438 43.824219 C 198.351562 39.574219 192.246094 37.136719 186.320312 35.558594 C 181.828125 34.363281 174.8125 33.261719 171.074219 36.796875 C 170.828125 37.027344 171.179688 37.351562 171.433594 37.15625 C 175.996094 33.566406 183.398438 35.375 188.425781 36.921875 C 194.429688 38.765625 200.4375 41.78125 204.503906 46.679688 C 207.09375 49.796875 207.933594 53.730469 208.125 57.683594 C 208.210938 59.417969 208.136719 61.164062 208.050781 62.902344 C 207.992188 64.183594 207.738281 65.496094 207.917969 66.78125" stroke-linecap="round" />
</g>
<g transform="matrix(1.35 0 0 1.35 291.51 80.47)" id="_EaClCnUvvYRn_A0n05uA"  >
<path style="stroke: none; stroke-width: 1; stroke-dasharray: none; stroke-linecap: butt; stroke-dashoffset: 0; stroke-linejoin: miter; stroke-miterlimit: 4; fill: rgb(0,204,192); fill-rule: nonzero; opacity: 1;" vector-effect="non-scaling-stroke"  transform=" translate(-218.16, -64.09)" d="M 222.082031 68.375 C 222.335938 68.425781 222.425781 68.085938 222.1875 67.992188 C 220.160156 67.199219 218.523438 66.082031 217.214844 64.328125 C 216.171875 62.933594 215.371094 61.355469 214.410156 59.90625 C 214.246094 59.660156 213.878906 59.871094 214.015625 60.136719 C 215.902344 63.722656 217.71875 67.542969 222.082031 68.375" stroke-linecap="round" />
</g>
<g transform="matrix(1.35 0 0 1.35 197.06 54.69)" id="QQBrW96JxFLF1tO6pMLOZ"  >
<path style="stroke: none; stroke-width: 1; stroke-dasharray: none; stroke-linecap: butt; stroke-dashoffset: 0; stroke-linejoin: miter; stroke-miterlimit: 4; fill: rgb(0,204,192); fill-rule: nonzero; opacity: 1;" vector-effect="non-scaling-stroke"  transform=" translate(-148.33, -45.03)" d="M 149.75 46.695312 C 152.300781 45.621094 154.757812 43.988281 155.839844 41.347656 C 155.925781 41.140625 155.574219 40.996094 155.484375 41.195312 C 154.210938 43.894531 151.359375 45.347656 148.703125 46.386719 C 146.191406 47.371094 143.453125 47.589844 140.953125 48.527344 C 140.730469 48.613281 140.757812 48.949219 141.011719 48.953125 C 143.886719 49.023438 147.144531 47.792969 149.75 46.695312" stroke-linecap="round" />
</g>
<g transform="matrix(1.35 0 0 1.35 333.7 94.61)" id="AURfUuIzZTpPW5W49LQ98"  >
<path style="stroke: none; stroke-width: 1; stroke-dasharray: none; stroke-linecap: butt; stroke-dashoffset: 0; stroke-linejoin: miter; stroke-miterlimit: 4; fill: rgb(0,204,192); fill-rule: nonzero; opacity: 1;" vector-effect="non-scaling-stroke"  transform=" translate(-249.35, -74.54)" d="M 245.488281 69.382812 C 245.128906 73.882812 248.226562 79.398438 253.09375 79.867188 C 253.289062 79.886719 253.296875 79.609375 253.136719 79.546875 C 250.898438 78.707031 249.136719 77.75 247.703125 75.765625 C 246.367188 73.917969 245.878906 71.621094 245.824219 69.382812 C 245.816406 69.164062 245.503906 69.167969 245.488281 69.382812" stroke-linecap="round" />
</g>
<g transform="matrix(1.35 0 0 1.35 312.79 61.55)" id="-iLEJbnYU2ZTwXmPQdku3"  >
<path style="stroke: none; stroke-width: 1; stroke-dasharray: none; stroke-linecap: butt; stroke-dashoffset: 0; stroke-linejoin: miter; stroke-miterlimit: 4; fill: rgb(0,204,192); fill-rule: nonzero; opacity: 1;" vector-effect="non-scaling-stroke"  transform=" translate(-233.89, -50.1)" d="M 227.246094 46.863281 C 228.195312 52.339844 235.6875 53.957031 240.375 53.464844 C 240.589844 53.441406 240.589844 53.15625 240.375 53.128906 C 235.6875 52.585938 228.980469 52.460938 227.582031 46.769531 C 227.527344 46.550781 227.210938 46.644531 227.246094 46.863281" stroke-linecap="round" />
</g>
<g transform="matrix(1.35 0 0 1.35 290.68 37.83)" id="Y5ony4XWkJ0BZdLrC8oA2"  >
<path style="stroke: none; stroke-width: 1; stroke-dasharray: none; stroke-linecap: butt; stroke-dashoffset: 0; stroke-linejoin: miter; stroke-miterlimit: 4; fill: rgb(0,204,192); fill-rule: nonzero; opacity: 1;" vector-effect="non-scaling-stroke"  transform=" translate(-217.55, -32.56)" d="M 225.058594 34.503906 C 225.242188 34.445312 225.222656 34.140625 225.011719 34.160156 C 219.53125 34.648438 214.554688 33.878906 210.289062 30.101562 C 210.078125 29.917969 209.773438 30.21875 209.980469 30.40625 C 213.808594 33.9375 219.90625 36.210938 225.058594 34.503906" stroke-linecap="round" />
</g>
<g transform="matrix(1.35 0 0 1.35 258.71 21.23)" id="OV2t6b05WCI1iHF9MXdS-"  >
<path style="stroke: none; stroke-width: 1; stroke-dasharray: none; stroke-linecap: butt; stroke-dashoffset: 0; stroke-linejoin: miter; stroke-miterlimit: 4; fill: rgb(0,204,192); fill-rule: nonzero; opacity: 1;" vector-effect="non-scaling-stroke"  transform=" translate(-193.91, -20.29)" d="M 199.875 20.277344 C 199.988281 20.207031 199.914062 20.003906 199.78125 20.054688 C 195.632812 21.632812 192.058594 20.925781 188.140625 19.066406 C 187.945312 18.96875 187.769531 19.257812 187.96875 19.359375 C 191.75 21.269531 195.96875 22.644531 199.875 20.277344" stroke-linecap="round" />
</g>
<g transform="matrix(1.35 0 0 1.35 222.38 22.87)" id="Z5-9onsxc8n1RZSnRCL1A"  >
<path style="stroke: none; stroke-width: 1; stroke-dasharray: none; stroke-linecap: butt; stroke-dashoffset: 0; stroke-linejoin: miter; stroke-miterlimit: 4; fill: rgb(0,204,192); fill-rule: nonzero; opacity: 1;" vector-effect="non-scaling-stroke"  transform=" translate(-167.05, -21.5)" d="M 160.210938 24.636719 C 162.886719 24.757812 165.535156 23.984375 167.976562 22.957031 C 170.074219 22.074219 172.898438 20.675781 174.015625 18.5625 C 174.089844 18.417969 173.910156 18.28125 173.792969 18.390625 C 170.207031 21.78125 165.308594 24.472656 160.210938 24.34375 C 160.019531 24.339844 160.023438 24.628906 160.210938 24.636719" stroke-linecap="round" />
</g>
<g transform="matrix(1.35 0 0 1.35 179.8 44.12)" id="PHjXvTSLEPmxdNxjdUVzB"  >
<path style="stroke: none; stroke-width: 1; stroke-dasharray: none; stroke-linecap: butt; stroke-dashoffset: 0; stroke-linejoin: miter; stroke-miterlimit: 4; fill: rgb(0,204,192); fill-rule: nonzero; opacity: 1;" vector-effect="non-scaling-stroke"  transform=" translate(-135.57, -37.21)" d="M 133.960938 40.773438 C 133.738281 39.273438 133.753906 37.972656 134.515625 36.628906 C 135.261719 35.304688 136.566406 34.632812 137.730469 33.75 C 137.863281 33.648438 137.792969 33.402344 137.605469 33.460938 C 134.585938 34.433594 132.542969 37.800781 133.65625 40.855469 C 133.730469 41.050781 133.988281 40.972656 133.960938 40.773438" stroke-linecap="round" />
</g>
<g transform="matrix(1.35 0 0 1.35 140.8 187.7)" id="dSSgYVveVhKV7-Js10-pQ"  >
<path style="stroke: none; stroke-width: 1; stroke-dasharray: none; stroke-linecap: butt; stroke-dashoffset: 0; stroke-linejoin: miter; stroke-miterlimit: 4; fill: rgb(255,72,88); fill-rule: nonzero; opacity: 1;" vector-effect="non-scaling-stroke"  transform=" translate(-106.73, -143.37)" d="M 101.371094 146.101562 C 96.519531 139.023438 92.914062 131.089844 90.679688 122.804688 C 90.480469 124.261719 90.265625 125.828125 90.035156 127.492188 C 92 133.566406 94.742188 139.359375 97.835938 144.515625 C 100.234375 148.519531 103.058594 152.078125 106.660156 155.058594 C 110.34375 158.105469 114.550781 160.425781 118.710938 162.734375 C 119.417969 163.125 120.117188 163.53125 120.816406 163.933594 C 121.71875 163.550781 122.582031 163.183594 123.417969 162.832031 C 115.253906 158.160156 106.859375 154.121094 101.371094 146.101562" stroke-linecap="round" />
</g>
<g transform="matrix(1.35 0 0 1.35 346.29 372.71)" id="Gj3ShrUpCZm5HS9gqXxQp"  >
<path style="stroke: none; stroke-width: 1; stroke-dasharray: none; stroke-linecap: butt; stroke-dashoffset: 0; stroke-linejoin: miter; stroke-miterlimit: 4; fill: rgb(255,72,88); fill-rule: nonzero; opacity: 1;" vector-effect="non-scaling-stroke"  transform=" translate(-258.66, -280.15)" d="M 275.972656 266.578125 C 274.125 262.582031 272.359375 258.746094 270.757812 255.222656 C 260.335938 251.355469 249.632812 248.257812 238.777344 245.980469 C 242.375 252.507812 245.972656 259.671875 249.570312 266.144531 C 257.042969 279.597656 268.25 290.808594 274.230469 305.007812 C 275.441406 307.785156 276.914062 310.933594 278.542969 314.324219 C 277.941406 299.289062 277.035156 282.828125 275.972656 266.578125" stroke-linecap="round" />
</g>
<g transform="matrix(1.35 0 0 1.35 210.74 156.15)" id="lO7Y2XncaFeXrjd_U8xAk"  >
<path style="stroke: none; stroke-width: 1; stroke-dasharray: none; stroke-linecap: butt; stroke-dashoffset: 0; stroke-linejoin: miter; stroke-miterlimit: 4; fill: rgb(255,72,88); fill-rule: nonzero; opacity: 1;" vector-effect="non-scaling-stroke"  transform=" translate(-158.44, -120.04)" d="M 153.875 119.515625 C 153.550781 119.984375 153.550781 120.441406 153.738281 120.816406 C 153.851562 121.25 154.171875 121.621094 154.757812 121.75 C 155.808594 121.980469 156.832031 121.570312 157.902344 121.765625 C 158.863281 121.941406 159.820312 122.183594 160.78125 122.320312 C 162.691406 122.589844 164.1875 120.617188 162.601562 119.109375 C 161.523438 118.082031 159.636719 117.972656 158.242188 117.796875 C 156.464844 117.578125 154.945312 117.988281 153.875 119.515625" stroke-linecap="round" />
</g>
<g transform="matrix(1.35 0 0 1.35 211.09 162.95)" id="4ojFjtaeNzTw7Q8qb-KGb"  >
<path style="stroke: none; stroke-width: 1; stroke-dasharray: none; stroke-linecap: butt; stroke-dashoffset: 0; stroke-linejoin: miter; stroke-miterlimit: 4; fill: rgb(255,72,88); fill-rule: nonzero; opacity: 1;" vector-effect="non-scaling-stroke"  transform=" translate(-158.7, -125.07)" d="M 155.722656 123.617188 C 154.863281 124.023438 154.355469 125.144531 155.273438 125.925781 C 156.1875 126.703125 157.503906 126.929688 158.65625 127.089844 C 160.003906 127.269531 161.457031 127.398438 162.367188 126.199219 C 162.894531 125.507812 162.507812 124.507812 161.996094 123.953125 C 161.507812 123.425781 160.683594 123.234375 160.007812 123.125 C 158.65625 122.910156 156.851562 122.703125 155.722656 123.617188" stroke-linecap="round" />
</g>
<g transform="matrix(1.35 0 0 1.35 298.12 294.28)" id="TDMzxfARCuUVsU5TwbPTw"  >
<path style="stroke: none; stroke-width: 1; stroke-dasharray: none; stroke-linecap: butt; stroke-dashoffset: 0; stroke-linejoin: miter; stroke-miterlimit: 4; fill: rgb(255,72,88); fill-rule: nonzero; opacity: 1;" vector-effect="non-scaling-stroke"  transform=" translate(-223.05, -222.17)" d="M 234.59375 216.515625 C 233.625 218.402344 230.835938 217.777344 229.242188 217.707031 C 226.023438 217.5625 225.355469 219.800781 225.066406 222.480469 C 224.929688 223.710938 225.035156 225.609375 225.015625 227.558594 C 224.203125 225.910156 222.582031 224.773438 220.089844 224.949219 C 218.949219 225.027344 217.804688 225.640625 216.84375 226.542969 C 217.757812 224.085938 218.960938 221.410156 218.429688 218.785156 C 218.25 217.875 217.523438 217.222656 216.753906 216.792969 C 216.15625 216.460938 215.316406 216.445312 214.660156 216.378906 C 214.0625 216.363281 213.464844 216.351562 212.867188 216.332031 C 208.6875 216.226562 211.371094 211.5 211.878906 210.332031 C 212.015625 210.125 212.234375 209.953125 212.519531 209.816406 C 214.464844 208.859375 219.484375 209.386719 220.894531 209.40625 C 224.769531 209.460938 228.695312 209.742188 232.503906 210.484375 C 232.773438 210.539062 233.441406 210.648438 234.0625 210.800781 C 234.683594 210.960938 235.261719 211.167969 235.355469 211.410156 C 235.9375 212.914062 235.265625 215.207031 234.59375 216.515625 Z M 234.285156 209.414062 C 234.160156 209.371094 234.035156 209.324219 233.898438 209.289062 C 229.28125 208.042969 224.1875 207.9375 219.445312 207.917969 C 217.976562 207.90625 214.984375 207.660156 212.808594 208.238281 C 211.984375 208.453125 211.285156 208.796875 210.828125 209.3125 C 210.742188 209.375 210.664062 209.457031 210.605469 209.585938 C 210.566406 209.652344 210.539062 209.714844 210.519531 209.777344 C 209.753906 211.453125 208.148438 214.285156 209.445312 216.015625 C 211.433594 218.664062 214.335938 216.609375 216.59375 218.449219 C 218.265625 219.808594 216.292969 224.75 214.957031 228.355469 C 214.441406 229.746094 214.015625 230.941406 213.9375 231.648438 C 213.449219 236.125 218.949219 236.648438 222.21875 236.4375 C 226.386719 236.167969 226.335938 231.613281 226.296875 228.164062 C 226.292969 227.539062 226.285156 226.945312 226.304688 226.421875 C 226.445312 222.644531 225.945312 218.917969 231.007812 219.289062 C 233.492188 219.472656 235.085938 218.792969 236.246094 216.527344 C 237.863281 213.382812 237.363281 210.460938 234.285156 209.414062" stroke-linecap="round" />
</g>
<g transform="matrix(1.35 0 0 1.35 185.73 280.62)" id="6O-bBQpJvwRXTDE8zPVNT"  >
<path style="stroke: none; stroke-width: 1; stroke-dasharray: none; stroke-linecap: butt; stroke-dashoffset: 0; stroke-linejoin: miter; stroke-miterlimit: 4; fill: rgb(255,72,88); fill-rule: nonzero; opacity: 1;" vector-effect="non-scaling-stroke"  transform=" translate(-139.95, -212.07)" d="M 137.667969 214.925781 C 136.53125 215.074219 135.425781 215.753906 134.523438 216.710938 C 134.527344 216.703125 134.527344 216.699219 134.53125 216.695312 C 135.195312 214.410156 136.589844 211.125 135.566406 208.742188 C 135.234375 207.976562 134.574219 207.117188 133.691406 206.941406 C 132.714844 206.742188 131.859375 206.703125 130.851562 206.738281 C 126.378906 206.902344 127.664062 203.308594 128.5625 200.863281 C 128.929688 200.238281 129.960938 199.878906 131.207031 199.671875 C 133.445312 199.296875 136.378906 199.414062 137.457031 199.363281 C 141.210938 199.179688 145.011719 199.238281 148.753906 199.660156 C 150.511719 199.859375 152.046875 199.804688 152.269531 201.792969 C 152.398438 202.925781 152.289062 204.214844 151.78125 205.242188 C 151.296875 206.234375 150.433594 206.980469 149.039062 207.109375 C 147.882812 207.21875 146.726562 207.09375 145.566406 207.210938 C 142.4375 207.539062 142.5 210.671875 142.453125 213.089844 C 142.425781 214.328125 142.453125 215.574219 142.488281 216.816406 C 141.53125 215.457031 139.925781 214.625 137.667969 214.925781 Z M 143.796875 223.535156 C 144.589844 221.164062 143.996094 217.804688 143.949219 215.621094 C 143.917969 214.273438 143.917969 212.929688 143.972656 211.585938 C 144.074219 209.113281 145.976562 208.574219 148.164062 208.601562 C 150.644531 208.628906 152.222656 207.894531 153.246094 205.5625 C 154.097656 203.617188 154.210938 201.773438 153.472656 200.425781 C 152.941406 199.460938 151.980469 198.746094 150.519531 198.449219 C 145.828125 197.492188 140.753906 197.6875 136.007812 197.960938 C 135.023438 198.015625 133.308594 198.007812 131.636719 198.214844 C 129.757812 198.445312 127.929688 198.945312 127.269531 200.136719 C 127.25 200.175781 127.246094 200.210938 127.230469 200.25 C 127.222656 200.273438 127.203125 200.289062 127.195312 200.3125 C 126.558594 202.046875 125.089844 205.03125 126.578125 206.777344 C 128.542969 209.085938 132.730469 206.960938 134.125 209.105469 C 135.257812 210.851562 133.625 214.535156 133.105469 216.300781 C 132.648438 217.851562 132.175781 219.429688 132.011719 221.042969 C 131.964844 221.511719 131.9375 221.980469 131.953125 222.453125 C 132.066406 226.578125 137.464844 226.640625 140.449219 226.261719 C 142.347656 226.023438 143.320312 224.957031 143.796875 223.535156" stroke-linecap="round" />
</g>
<g transform="matrix(1.35 0 0 1.35 146.26 70.46)" id="90S56M1CEGKEH6zjiyrJj"  >
<path style="stroke: none; stroke-width: 1; stroke-dasharray: none; stroke-linecap: butt; stroke-dashoffset: 0; stroke-linejoin: miter; stroke-miterlimit: 4; fill: rgb(255,72,88); fill-rule: nonzero; opacity: 1;" vector-effect="non-scaling-stroke"  transform=" translate(-110.77, -56.69)" d="M 111.242188 59.042969 C 113.046875 57.773438 114.90625 56.742188 116.804688 56.070312 C 111.875 54.964844 108.230469 54.347656 107.214844 54.328125 C 106.519531 54.3125 105.675781 54.578125 104.730469 55.042969 C 107.667969 56.164062 110.125 57.410156 111.242188 59.042969" stroke-linecap="round" />
</g>
<g transform="matrix(1.35 0 0 1.35 219.66 169.63)" id="W2_U8mc3_bgW5JiY8aBO-"  >
<path style="stroke: none; stroke-width: 1; stroke-dasharray: none; stroke-linecap: butt; stroke-dashoffset: 0; stroke-linejoin: miter; stroke-miterlimit: 4; fill: rgb(255,72,88); fill-rule: nonzero; opacity: 1;" vector-effect="non-scaling-stroke"  transform=" translate(-165.04, -130.01)" d="M 235.335938 147.320312 C 235.269531 150.949219 233.960938 154.679688 233.058594 158.160156 C 231.960938 162.414062 230.953125 166.605469 229.46875 170.746094 C 226.371094 179.410156 222.164062 187.300781 216.019531 194.039062 C 215.324219 194.800781 214.609375 195.550781 213.867188 196.28125 C 210.433594 199.648438 206.597656 202.664062 202.296875 204.84375 C 197.621094 207.210938 192.789062 207.074219 187.890625 205.429688 C 178.523438 202.28125 170.511719 194.492188 164.640625 186.785156 C 162.359375 183.789062 160.355469 180.628906 158.589844 177.347656 C 154.40625 169.582031 151.613281 161.121094 149.992188 152.425781 C 149.472656 149.628906 149.070312 146.808594 148.785156 143.980469 C 148.671875 142.863281 148.574219 141.753906 148.496094 140.636719 C 147.753906 130.078125 149.113281 119.632812 150.472656 109.183594 C 150.507812 108.90625 150.546875 108.628906 150.578125 108.347656 C 151.019531 104.980469 151.449219 101.609375 151.804688 98.234375 C 151.839844 97.898438 151.875 97.5625 151.90625 97.222656 C 151.96875 96.597656 152.03125 95.96875 152.089844 95.34375 C 152.117188 95.003906 152.148438 94.664062 152.179688 94.328125 C 153.757812 91.976562 155.207031 89.523438 156.511719 87.054688 C 157.875 84.480469 159.085938 81.890625 160.132812 79.382812 C 161.921875 75.089844 157.65625 70.996094 150.867188 67.410156 C 152.082031 64.316406 150.667969 60.152344 148.820312 58.511719 C 148.324219 58.070312 147.367188 57.445312 146.136719 56.746094 C 141.832031 54.300781 134.082031 50.914062 130.015625 50.914062 C 129.011719 51.164062 128.09375 51.804688 127.257812 52.628906 C 126.367188 53.507812 125.570312 54.609375 124.875 55.707031 C 128.011719 56.617188 131.195312 58.871094 134.355469 62.957031 C 137.253906 66.707031 133.621094 74.738281 128.679688 79.179688 C 122.796875 84.359375 114.609375 84.292969 110.566406 81.433594 C 109.546875 80.550781 105.671875 77.507812 104.59375 76.742188 C 101.667969 74.214844 101.867188 70.417969 103.976562 66.679688 C 101.929688 66.507812 99.648438 66.074219 97.140625 66.234375 C 94.757812 66.390625 90.238281 72.667969 93.085938 74.847656 C 95.925781 77.03125 101.253906 77.695312 104.90625 81.910156 C 108.78125 86.375 113.550781 95.167969 114.867188 99.71875 C 116.058594 103.828125 115.1875 106.523438 113.199219 109.480469 C 120.253906 111.558594 126.570312 112.664062 130.535156 111.792969 C 131.847656 111.507812 133.132812 111.09375 134.386719 110.578125 C 140.285156 108.144531 145.488281 103.328125 149.847656 97.59375 C 149.734375 98.542969 149.617188 99.496094 149.496094 100.449219 C 149.429688 100.964844 149.367188 101.476562 149.300781 101.992188 C 149.125 103.378906 148.945312 104.761719 148.765625 106.148438 C 148.710938 106.558594 148.65625 106.964844 148.605469 107.371094 C 147.121094 118.796875 145.722656 130.214844 146.417969 141.714844 C 146.554688 143.96875 146.769531 146.226562 147.078125 148.488281 C 147.355469 150.492188 147.707031 152.484375 148.113281 154.46875 C 148.152344 154.667969 148.1875 154.867188 148.226562 155.066406 C 150.105469 164.007812 153.285156 172.660156 157.832031 180.527344 C 161.511719 186.898438 166.078125 192.753906 171.597656 197.792969 C 178.378906 203.984375 187.46875 209.996094 197.078125 208.988281 C 201.125 208.570312 204.929688 206.363281 208.222656 204.105469 C 210.589844 202.484375 212.8125 200.640625 214.902344 198.664062 C 216.222656 197.410156 217.496094 196.105469 218.714844 194.765625 C 225.25 187.574219 229.339844 178.738281 232.511719 169.644531 C 233.863281 165.777344 234.734375 161.789062 235.769531 157.828125 C 236.65625 154.4375 237.824219 150.855469 237.902344 147.320312 C 237.9375 145.667969 235.367188 145.671875 235.335938 147.320312" stroke-linecap="round" />
</g>
<g transform="matrix(1.35 0 0 1.35 233.04 363.94)" id="Zy8xXjMfN_rHGcxil6l_8"  >
<path style="stroke: none; stroke-width: 1; stroke-dasharray: none; stroke-linecap: butt; stroke-dashoffset: 0; stroke-linejoin: miter; stroke-miterlimit: 4; fill: rgb(255,72,88); fill-rule: nonzero; opacity: 1;" vector-effect="non-scaling-stroke"  transform=" translate(-174.93, -273.67)" d="M 207.503906 260.515625 C 203.816406 261.402344 200.105469 262.207031 196.394531 262.980469 C 190.0625 264.308594 183.605469 265.683594 177.128906 266.042969 C 174.027344 266.21875 170.890625 265.703125 167.832031 265.273438 C 164 264.738281 160.191406 264.0625 156.394531 263.34375 C 151.960938 262.511719 147.539062 261.609375 143.132812 260.628906 C 142.757812 258.519531 142.449219 256.40625 142.25 254.285156 C 142.144531 253.109375 141.664062 251.480469 143.097656 251.433594 C 145.464844 251.359375 147.90625 251.914062 150.222656 252.3125 C 154.769531 253.09375 159.292969 254.015625 163.832031 254.832031 C 165.765625 255.175781 167.699219 255.515625 169.648438 255.761719 C 171.085938 255.941406 172.3125 255.78125 173.714844 255.707031 C 173.730469 255.730469 173.753906 255.757812 173.789062 255.757812 C 179.671875 255.875 185.679688 254.785156 191.492188 253.984375 C 194.867188 253.519531 198.234375 253.011719 201.585938 252.410156 C 203.671875 252.039062 205.84375 251.695312 207.859375 250.996094 C 207.832031 254.164062 207.695312 257.339844 207.503906 260.515625 Z M 206.601562 272.269531 C 206.34375 275.320312 206.089844 278.386719 205.664062 281.417969 C 205.355469 283.613281 202.4375 285.21875 200.765625 286.242188 C 194.832031 289.882812 188.078125 292.351562 181.5 294.542969 C 179.261719 295.285156 176.757812 296.335938 174.378906 296.40625 C 171.21875 296.503906 168.007812 294.824219 165.324219 293.359375 C 159.863281 290.378906 155.050781 286.421875 150.152344 282.628906 C 148.953125 281.699219 148.5 280.824219 147.953125 279.371094 C 147.011719 276.867188 146.316406 274.265625 145.648438 271.679688 C 144.757812 268.242188 143.90625 264.742188 143.246094 261.21875 C 147.554688 262.210938 151.890625 263.097656 156.234375 263.929688 C 160.03125 264.660156 163.835938 265.328125 167.664062 265.886719 C 170.679688 266.328125 173.773438 266.816406 176.832031 266.703125 C 183.179688 266.460938 189.558594 265.046875 195.761719 263.777344 C 199.675781 262.972656 203.578125 262.097656 207.460938 261.164062 C 207.226562 264.871094 206.914062 268.578125 206.601562 272.269531 Z M 208.125 250.144531 C 206.105469 250.921875 203.886719 251.273438 201.765625 251.667969 C 198.445312 252.292969 195.101562 252.792969 191.757812 253.269531 C 185.769531 254.125 179.746094 254.714844 173.761719 255.566406 C 173.730469 255.570312 173.710938 255.589844 173.703125 255.613281 C 172.867188 255.632812 171.945312 255.273438 171.121094 255.171875 C 169.644531 254.992188 168.164062 254.757812 166.695312 254.515625 C 163.359375 253.960938 160.042969 253.304688 156.722656 252.667969 C 153.617188 252.070312 150.507812 251.464844 147.378906 250.992188 C 145.75 250.746094 143.824219 250.292969 142.183594 250.667969 C 141.132812 250.910156 141.28125 252.382812 141.304688 253.1875 C 141.378906 255.488281 141.800781 257.800781 142.195312 260.0625 C 143.25 266.039062 144.613281 272.019531 146.480469 277.800781 C 146.957031 279.289062 147.433594 281.179688 148.46875 282.40625 C 149.484375 283.605469 151.183594 284.542969 152.410156 285.507812 C 157.539062 289.53125 162.921875 293.597656 169.003906 296.058594 C 171.3125 296.988281 173.820312 297.582031 176.28125 296.972656 C 178.863281 296.335938 181.394531 295.472656 183.898438 294.597656 C 190.210938 292.390625 196.75 289.90625 202.328125 286.164062 C 203.894531 285.113281 205.863281 283.722656 206.359375 281.789062 C 207.0625 279.070312 207.027344 275.957031 207.265625 273.171875 C 207.914062 265.644531 208.570312 258.046875 208.578125 250.488281 C 208.578125 250.273438 208.34375 250.058594 208.125 250.144531" stroke-linecap="round" />
</g>
<g transform="matrix(1.35 0 0 1.35 274.47 146.17)" id="AlpM9kFSkum9-ioGeyeCF"  >
<path style="stroke: none; stroke-width: 1; stroke-dasharray: none; stroke-linecap: butt; stroke-dashoffset: 0; stroke-linejoin: miter; stroke-miterlimit: 4; fill: rgb(255,72,88); fill-rule: nonzero; opacity: 1;" vector-effect="non-scaling-stroke"  transform=" translate(-205.56, -112.66)" d="M 193.554688 122.875 C 198.023438 122.042969 202.261719 119.832031 206 117.320312 C 210.898438 114.027344 216.472656 108.765625 217.832031 102.785156 C 217.898438 102.496094 217.492188 102.300781 217.34375 102.578125 C 215.738281 105.527344 214.394531 108.335938 212.171875 110.910156 C 210.167969 113.226562 207.78125 115.199219 205.253906 116.925781 C 201.742188 119.320312 197.609375 121.492188 193.433594 122.449219 C 193.160156 122.515625 193.28125 122.925781 193.554688 122.875" stroke-linecap="round" />
</g>
<g transform="matrix(1.35 0 0 1.35 130.46 125.65)" id="4za6RSsn_80Eg3FSIIu76"  >
<path style="stroke: none; stroke-width: 1; stroke-dasharray: none; stroke-linecap: butt; stroke-dashoffset: 0; stroke-linejoin: miter; stroke-miterlimit: 4; fill: rgb(0,0,0); fill-rule: nonzero; opacity: 1;" vector-effect="non-scaling-stroke"  transform=" translate(-99.09, -97.49)" d="M 101.265625 95.617188 C 97.625 91.96875 92.46875 90.453125 88.765625 86.867188 C 88.523438 86.636719 88.210938 86.976562 88.410156 87.222656 C 91.53125 91.109375 96.769531 92.464844 100.375 95.824219 C 103.964844 99.175781 106.992188 103.5625 109.101562 107.984375 C 109.324219 108.457031 110.019531 108.046875 109.796875 107.574219 C 107.699219 103.1875 104.703125 99.054688 101.265625 95.617188" stroke-linecap="round" />
</g>
<g transform="matrix(1.35 0 0 1.35 122.85 135.25)" id="Zw2oGXep7xs8J9HrTOXDS"  >
<path style="stroke: none; stroke-width: 1; stroke-dasharray: none; stroke-linecap: butt; stroke-dashoffset: 0; stroke-linejoin: miter; stroke-miterlimit: 4; fill: rgb(0,0,0); fill-rule: nonzero; opacity: 1;" vector-effect="non-scaling-stroke"  transform=" translate(-93.46, -104.59)" d="M 103.65625 113.878906 C 100.089844 111.640625 96.417969 109.773438 93.417969 106.746094 C 89.796875 103.09375 86.664062 98.855469 83.648438 94.707031 C 83.421875 94.394531 82.910156 94.671875 83.121094 95.015625 C 85.71875 99.28125 89.148438 103.128906 92.449219 106.855469 C 95.390625 110.175781 99.425781 112.429688 103.265625 114.546875 C 103.703125 114.789062 104.078125 114.144531 103.65625 113.878906" stroke-linecap="round" />
</g>
<g transform="matrix(1.35 0 0 1.35 104.15 143.95)" id="1kBKzf4MHy2gch3-ZyHUO"  >
<path style="stroke: none; stroke-width: 1; stroke-dasharray: none; stroke-linecap: butt; stroke-dashoffset: 0; stroke-linejoin: miter; stroke-miterlimit: 4; fill: rgb(0,0,0); fill-rule: nonzero; opacity: 1;" vector-effect="non-scaling-stroke"  transform=" translate(-79.64, -111.02)" d="M 80 111.574219 C 76.75 110.023438 73.527344 108.230469 71.238281 105.375 C 71.121094 105.230469 70.875 105.417969 70.980469 105.574219 C 72.855469 108.242188 75.402344 109.941406 78.261719 111.429688 C 81.539062 113.140625 84.773438 114.683594 87.894531 116.679688 C 88.171875 116.859375 88.484375 116.449219 88.242188 116.226562 C 85.933594 114.125 82.785156 112.90625 80 111.574219" stroke-linecap="round" />
</g>
<g transform="matrix(1.35 0 0 1.35 259.75 196.06)" id="tJQNN85WABDUTVvbPZxK_"  >
<path style="stroke: none; stroke-width: 1; stroke-dasharray: none; stroke-linecap: butt; stroke-dashoffset: 0; stroke-linejoin: miter; stroke-miterlimit: 4; fill: rgb(0,0,0); fill-rule: nonzero; opacity: 1;" vector-effect="non-scaling-stroke"  transform=" translate(-194.68, -149.55)" d="M 219.75 141.730469 C 219.546875 141.511719 219.339844 141.203125 219.125 140.824219 C 217.992188 138.816406 216.738281 134.753906 215.875 130.265625 C 215.003906 131.269531 214.09375 132.226562 213.140625 133.121094 C 201.8125 143.757812 183.761719 148.390625 169.457031 149.128906 C 169.664062 149.621094 169.867188 150.109375 170.058594 150.585938 C 170.679688 152.160156 171.179688 153.605469 171.417969 154.824219 C 171.621094 155.863281 171.640625 156.734375 171.367188 157.332031 C 171.363281 157.335938 171.363281 157.339844 171.363281 157.34375 C 169.972656 160.292969 175.589844 167.875 187.128906 168.808594 C 198.667969 169.742188 221.964844 144.175781 219.75 141.730469" stroke-linecap="round" />
</g>
<g transform="matrix(1.35 0 0 1.35 217.3 164.75)" id="rYig-5srvYexRSaNbX8sb"  >
<path style="stroke: none; stroke-width: 1; stroke-dasharray: none; stroke-linecap: butt; stroke-dashoffset: 0; stroke-linejoin: miter; stroke-miterlimit: 4; fill: rgb(0,0,0); fill-rule: nonzero; opacity: 1;" vector-effect="non-scaling-stroke"  transform=" translate(-163.29, -126.4)" d="M 158.640625 124.113281 C 157.835938 124.21875 157.753906 125.15625 157.757812 125.785156 C 157.761719 125.855469 157.671875 125.871094 157.636719 125.820312 C 157.390625 125.480469 157.519531 124.933594 157.695312 124.59375 C 157.890625 124.21875 158.195312 123.953125 158.640625 123.964844 C 158.734375 123.972656 158.726562 124.097656 158.640625 124.113281 Z M 160.132812 124.449219 C 160.164062 124.3125 160.367188 124.371094 160.34375 124.503906 C 160.28125 124.8125 160.335938 125.144531 160.238281 125.441406 C 160.214844 125.511719 160.117188 125.511719 160.09375 125.441406 C 159.992188 125.128906 160.0625 124.761719 160.132812 124.449219 Z M 176.421875 123.953125 C 173.496094 124.636719 170.503906 124.957031 167.464844 124.613281 C 165.730469 124.417969 164.074219 123.78125 162.417969 123.273438 C 160.132812 122.570312 157.980469 122.277344 155.613281 122.769531 C 154.109375 123.082031 152.398438 123.597656 150.851562 123.230469 C 150.613281 123.175781 150.382812 123.09375 150.152344 123.023438 C 150.203125 126.457031 153.351562 129.707031 159.734375 130.226562 C 166.035156 130.738281 171.089844 127.558594 176.421875 123.953125" stroke-linecap="round" />
</g>
<g transform="matrix(1.35 0 0 1.35 217.17 155.84)" id="nDsTdjnm-Dp4lXVO2NHdK"  >
<path style="stroke: none; stroke-width: 1; stroke-dasharray: none; stroke-linecap: butt; stroke-dashoffset: 0; stroke-linejoin: miter; stroke-miterlimit: 4; fill: rgb(0,0,0); fill-rule: nonzero; opacity: 1;" vector-effect="non-scaling-stroke"  transform=" translate(-163.2, -119.81)" d="M 155.523438 120.097656 C 155.542969 120.03125 155.625 120.039062 155.644531 120.097656 C 155.714844 120.296875 155.703125 120.519531 155.8125 120.714844 C 155.964844 120.96875 156.164062 121.101562 156.457031 121.125 C 156.554688 121.132812 156.558594 121.28125 156.453125 121.28125 C 155.882812 121.269531 155.347656 120.691406 155.523438 120.097656 Z M 158.746094 118.886719 C 158.785156 118.902344 158.789062 118.949219 158.773438 118.984375 C 158.714844 119.105469 158.589844 119.1875 158.527344 119.3125 C 158.429688 119.503906 158.363281 119.703125 158.332031 119.917969 C 158.285156 120.234375 158.222656 120.839844 158.539062 121.050781 C 158.621094 121.105469 158.570312 121.246094 158.46875 121.214844 C 157.546875 120.933594 158.132812 118.582031 158.746094 118.886719 Z M 161.457031 119.695312 C 161.503906 119.6875 161.554688 119.730469 161.523438 119.777344 C 161.351562 119.996094 161.128906 120.164062 160.992188 120.417969 C 160.84375 120.683594 160.765625 120.96875 160.761719 121.273438 C 160.761719 121.367188 160.609375 121.398438 160.589844 121.296875 C 160.484375 120.71875 160.808594 119.820312 161.457031 119.695312 Z M 152.242188 123.101562 C 154 122.964844 155.691406 122.398438 157.453125 122.292969 C 161.1875 122.070312 164.414062 124.113281 168.078125 124.378906 C 170.871094 124.582031 173.585938 124.257812 176.25 123.640625 C 170.808594 122.488281 164.386719 115.28125 159.136719 115.1875 C 153.769531 115.097656 150.21875 119.398438 150.15625 122.847656 C 150.832031 123.042969 151.527344 123.15625 152.242188 123.101562" stroke-linecap="round" />
</g>
<g transform="matrix(1.35 0 0 1.35 306.44 126.95)" id="eXPwAkhHBy2D_BOX-7_Ku"  >
<path style="stroke: none; stroke-width: 1; stroke-dasharray: none; stroke-linecap: butt; stroke-dashoffset: 0; stroke-linejoin: miter; stroke-miterlimit: 4; fill: rgb(0,0,0); fill-rule: nonzero; opacity: 1;" vector-effect="non-scaling-stroke"  transform=" translate(-229.2, -98.45)" d="M 224.15625 103.683594 C 223.722656 103.851562 223.910156 104.5625 224.351562 104.386719 C 225.503906 103.925781 226.734375 103.402344 227.097656 102.113281 C 227.398438 101.042969 226.5 99.84375 226.140625 98.90625 C 225.5625 97.375 227.820312 95.667969 228.792969 94.726562 C 229.46875 94.074219 230.566406 92.820312 231.65625 93.316406 C 233.011719 93.933594 233.949219 95.902344 233.726562 97.320312 C 233.652344 97.78125 234.359375 97.980469 234.433594 97.515625 C 234.699219 95.824219 233.816406 93.832031 232.347656 92.894531 C 230.695312 91.835938 229.519531 93.058594 228.273438 94.207031 C 227.207031 95.195312 225.414062 96.632812 225.269531 98.199219 C 225.210938 98.8125 225.574219 99.472656 225.824219 100.011719 C 226.023438 100.433594 226.21875 100.847656 226.351562 101.300781 C 226.742188 102.644531 225.109375 103.300781 224.15625 103.683594" stroke-linecap="round" />
</g>
<g transform="matrix(1.35 0 0 1.35 211.55 139.66)" id="uZTI1b7iUkdgoIX_WhXzs"  >
<path style="stroke: none; stroke-width: 1; stroke-dasharray: none; stroke-linecap: butt; stroke-dashoffset: 0; stroke-linejoin: miter; stroke-miterlimit: 4; fill: rgb(0,0,0); fill-rule: nonzero; opacity: 1;" vector-effect="non-scaling-stroke"  transform=" translate(-159.04, -107.85)" d="M 157.269531 108.835938 C 157.488281 108.9375 157.824219 108.992188 158.300781 108.976562 C 160.277344 108.914062 162.605469 106.976562 159.957031 106.734375 C 158.160156 106.566406 156.140625 108.320312 157.269531 108.835938" stroke-linecap="round" />
</g>
<g transform="matrix(1.35 0 0 1.35 219.43 138.08)" id="naoedgUKflXojL2zSL-2X"  >
<path style="stroke: none; stroke-width: 1; stroke-dasharray: none; stroke-linecap: butt; stroke-dashoffset: 0; stroke-linejoin: miter; stroke-miterlimit: 4; fill: rgb(0,0,0); fill-rule: nonzero; opacity: 1;" vector-effect="non-scaling-stroke"  transform=" translate(-164.87, -106.68)" d="M 164.261719 109.316406 C 166.488281 108.148438 165.800781 105.5625 164.339844 104.082031 C 164.179688 103.917969 163.9375 104.164062 164.089844 104.328125 C 164.722656 105.019531 165.164062 105.777344 165.257812 106.722656 C 165.351562 107.699219 164.734375 108.46875 164.152344 109.175781 C 164.085938 109.253906 164.164062 109.363281 164.261719 109.316406" stroke-linecap="round" />
</g>
<g transform="matrix(1.35 0 0 1.35 249.63 118.97)" id="Rg8ddWBWLyqMunAzsXPk5"  >
<path style="stroke: none; stroke-width: 1; stroke-dasharray: none; stroke-linecap: butt; stroke-dashoffset: 0; stroke-linejoin: miter; stroke-miterlimit: 4; fill: rgb(0,0,0); fill-rule: nonzero; opacity: 1;" vector-effect="non-scaling-stroke"  transform=" translate(-187.2, -92.55)" d="M 198.261719 89.835938 C 198.054688 89.585938 197.769531 89.648438 197.28125 89.882812 C 196.808594 89.902344 196.3125 90.035156 195.863281 90.097656 C 194.320312 90.316406 192.773438 90.535156 191.230469 90.753906 C 189.367188 91.019531 187.496094 91.269531 185.617188 91.4375 C 183.101562 91.667969 180.652344 91.113281 178.148438 91.226562 C 177.933594 91.238281 177.933594 91.554688 178.148438 91.5625 C 180.667969 91.664062 183.089844 92.089844 185.617188 91.921875 C 187.371094 91.800781 189.125 91.546875 190.867188 91.3125 C 192.332031 91.117188 193.800781 90.90625 195.265625 90.691406 C 195.433594 90.667969 195.621094 90.652344 195.808594 90.632812 C 194.507812 91.265625 192.53125 92.054688 189.4375 92.5 C 182.820312 93.449219 176.046875 92.273438 176.046875 92.273438 C 176.046875 92.273438 176.621094 92.953125 182.019531 94.738281 C 185.066406 95.746094 189.40625 95.703125 192.183594 94.277344 C 195.464844 92.527344 198.933594 90.664062 198.261719 89.835938" stroke-linecap="round" />
</g>
<g transform="matrix(1.35 0 0 1.35 262.36 122.92)" id="R8svYaFrOb5mDSMIlJYZd"  >
<path style="stroke: none; stroke-width: 1; stroke-dasharray: none; stroke-linecap: butt; stroke-dashoffset: 0; stroke-linejoin: miter; stroke-miterlimit: 4; fill: rgb(0,0,0); fill-rule: nonzero; opacity: 1;" vector-effect="non-scaling-stroke"  transform=" translate(-196.61, -95.47)" d="M 197.597656 96.179688 C 197.675781 96.210938 197.796875 96.175781 197.785156 96.074219 C 197.734375 95.632812 197.3125 95.3125 196.964844 95.078125 C 196.558594 94.800781 195.996094 94.652344 195.523438 94.796875 C 195.414062 94.828125 195.402344 95 195.523438 95.023438 C 195.929688 95.105469 196.304688 95.140625 196.671875 95.363281 C 197.027344 95.578125 197.226562 96.007812 197.597656 96.179688" stroke-linecap="round" />
</g>
<g transform="matrix(1.35 0 0 1.35 260.56 123.85)" id="Mc_j2npHLz5bO3mA4t6dE"  >
<path style="stroke: none; stroke-width: 1; stroke-dasharray: none; stroke-linecap: butt; stroke-dashoffset: 0; stroke-linejoin: miter; stroke-miterlimit: 4; fill: rgb(0,0,0); fill-rule: nonzero; opacity: 1;" vector-effect="non-scaling-stroke"  transform=" translate(-195.28, -96.16)" d="M 195.75 96.574219 C 195.820312 96.671875 196.023438 97.0625 196.191406 96.851562 C 196.386719 96.601562 195.976562 96.132812 195.816406 95.953125 C 195.445312 95.539062 194.972656 95.347656 194.421875 95.425781 C 194.25 95.449219 194.308594 95.699219 194.460938 95.707031 C 195.023438 95.75 195.433594 96.136719 195.75 96.574219" stroke-linecap="round" />
</g>
<g transform="matrix(1.35 0 0 1.35 258.18 124.66)" id="q-OVpil1uPdLean4PSS0q"  >
<path style="stroke: none; stroke-width: 1; stroke-dasharray: none; stroke-linecap: butt; stroke-dashoffset: 0; stroke-linejoin: miter; stroke-miterlimit: 4; fill: rgb(0,0,0); fill-rule: nonzero; opacity: 1;" vector-effect="non-scaling-stroke"  transform=" translate(-193.52, -96.76)" d="M 192.816406 95.90625 C 192.617188 95.90625 192.601562 96.171875 192.773438 96.234375 C 193.144531 96.378906 193.457031 96.53125 193.722656 96.835938 C 193.910156 97.046875 193.929688 97.308594 194.058594 97.546875 C 194.113281 97.648438 194.242188 97.625 194.300781 97.546875 C 194.515625 97.261719 194.285156 96.820312 194.101562 96.578125 C 193.796875 96.179688 193.324219 95.902344 192.816406 95.90625" stroke-linecap="round" />
</g>
<g transform="matrix(1.35 0 0 1.35 253.22 96.42)" id="2dYKdhCcE-YyxeO9X0M_S"  >
<path style="stroke: none; stroke-width: 1; stroke-dasharray: none; stroke-linecap: butt; stroke-dashoffset: 0; stroke-linejoin: miter; stroke-miterlimit: 4; fill: rgb(0,0,0); fill-rule: nonzero; opacity: 1;" vector-effect="non-scaling-stroke"  transform=" translate(-189.85, -75.88)" d="M 205.117188 79.933594 C 206.089844 79.175781 204.578125 72.636719 193.96875 71.382812 C 186.277344 70.472656 177.382812 72.753906 176.003906 73.980469 C 173.191406 76.488281 174.371094 80.777344 176.328125 80.585938 C 178.292969 80.386719 181.847656 77.832031 191.902344 77.9375 C 197.4375 77.992188 204.140625 80.691406 205.117188 79.933594" stroke-linecap="round" />
</g>
<g transform="matrix(1.35 0 0 1.35 231.39 99.38)" id="Bd7gnJM8LW87gjwWL2LCs"  >
<path style="stroke: none; stroke-width: 1; stroke-dasharray: none; stroke-linecap: butt; stroke-dashoffset: 0; stroke-linejoin: miter; stroke-miterlimit: 4; fill: rgb(0,0,0); fill-rule: nonzero; opacity: 1;" vector-effect="non-scaling-stroke"  transform=" translate(-173.71, -78.07)" d="M 172.890625 75.3125 C 171.5 76.851562 172.867188 80.707031 174.976562 80.875 C 175.105469 80.882812 175.148438 80.695312 175.042969 80.636719 C 172.953125 79.503906 172.789062 77.558594 173.105469 75.433594 C 173.121094 75.320312 172.988281 75.203125 172.890625 75.3125" stroke-linecap="round" />
</g>
<g transform="matrix(1.35 0 0 1.35 197.58 134.33)" id="3A_exNmX4unb3HcYlUCJn"  >
<path style="stroke: none; stroke-width: 1; stroke-dasharray: none; stroke-linecap: butt; stroke-dashoffset: 0; stroke-linejoin: miter; stroke-miterlimit: 4; fill: rgb(0,0,0); fill-rule: nonzero; opacity: 1;" vector-effect="non-scaling-stroke"  transform=" translate(-148.71, -103.91)" d="M 147.933594 105.460938 C 147.988281 106.160156 148.238281 106.800781 148.605469 107.371094 C 148.65625 106.964844 148.710938 106.558594 148.765625 106.148438 C 148.535156 105.5 148.472656 104.753906 148.664062 103.851562 C 148.796875 103.214844 149.019531 102.59375 149.300781 101.992188 C 149.367188 101.476562 149.429688 100.964844 149.496094 100.449219 C 148.539062 101.96875 147.792969 103.679688 147.933594 105.460938" stroke-linecap="round" />
</g>
<g transform="matrix(1.35 0 0 1.35 201.71 141.59)" id="z5NbzFIiZ-2XHqGkZfP_Y"  >
<path style="stroke: none; stroke-width: 1; stroke-dasharray: none; stroke-linecap: butt; stroke-dashoffset: 0; stroke-linejoin: miter; stroke-miterlimit: 4; fill: rgb(0,0,0); fill-rule: nonzero; opacity: 1;" vector-effect="non-scaling-stroke"  transform=" translate(-151.77, -109.28)" d="M 150.472656 109.183594 C 151.191406 109.652344 151.980469 110 152.734375 110.210938 C 153.023438 110.292969 153.210938 109.867188 152.941406 109.726562 C 152.113281 109.296875 151.289062 108.855469 150.578125 108.347656 C 150.546875 108.628906 150.507812 108.90625 150.472656 109.183594" stroke-linecap="round" />
</g>
<g transform="matrix(1.35 0 0 1.35 208.41 117.86)" id="6sPRr3QRnsYerpY2hpuZo"  >
<path style="stroke: none; stroke-width: 1; stroke-dasharray: none; stroke-linecap: butt; stroke-dashoffset: 0; stroke-linejoin: miter; stroke-miterlimit: 4; fill: rgb(0,0,0); fill-rule: nonzero; opacity: 1;" vector-effect="non-scaling-stroke"  transform=" translate(-156.72, -91.73)" d="M 151.804688 98.234375 C 152.214844 97.738281 152.628906 97.25 153.023438 96.785156 C 154.933594 94.550781 157.003906 92.457031 158.898438 90.207031 C 160.035156 88.863281 161.5 87.21875 161.640625 85.386719 C 161.65625 85.195312 161.359375 85.160156 161.3125 85.339844 C 160.75 87.714844 158.707031 89.707031 157.101562 91.457031 C 157.371094 90.71875 157.480469 89.933594 157.363281 89.148438 C 157.234375 88.273438 156.929688 87.589844 156.511719 87.054688 C 155.207031 89.523438 153.757812 91.976562 152.179688 94.328125 C 152.148438 94.664062 152.117188 95.003906 152.089844 95.34375 C 152.742188 95.304688 153.382812 95.128906 153.988281 94.839844 C 153.277344 95.621094 152.582031 96.410156 151.90625 97.222656 C 151.875 97.5625 151.839844 97.898438 151.804688 98.234375" stroke-linecap="round" />
</g>
<g transform="matrix(1.35 0 0 1.35 256.4 83.29)" id="6i3PQ5u0IVecPq0ax7BCa"  >
<path style="stroke: none; stroke-width: 1; stroke-dasharray: none; stroke-linecap: butt; stroke-dashoffset: 0; stroke-linejoin: miter; stroke-miterlimit: 4; fill: rgb(0,0,0); fill-rule: nonzero; opacity: 1;" vector-effect="non-scaling-stroke"  transform=" translate(-192.2, -66.17)" d="M 253.09375 79.867188 C 248.226562 79.398438 245.128906 73.882812 245.488281 69.382812 C 245.503906 69.167969 245.816406 69.164062 245.824219 69.382812 C 245.878906 71.621094 246.367188 73.917969 247.703125 75.765625 C 249.136719 77.75 250.898438 78.707031 253.136719 79.546875 C 253.296875 79.609375 253.289062 79.886719 253.09375 79.867188 Z M 247.734375 98.210938 C 247.429688 98.4375 247.148438 97.980469 247.359375 97.730469 C 248.578125 96.261719 249.875 94.699219 249.632812 92.652344 C 249.457031 91.164062 248.8125 89.796875 248 88.554688 C 246.507812 86.269531 244.597656 84.285156 243.136719 81.988281 C 241.714844 79.753906 240.125 77.566406 239.609375 74.921875 C 239.058594 72.089844 239.976562 69.105469 241.027344 66.496094 C 239.308594 66.09375 237.628906 65.550781 236.089844 64.957031 C 232.867188 63.710938 229.84375 62.082031 227.183594 59.863281 C 224.628906 57.734375 222.839844 55.097656 222.019531 51.851562 C 221.402344 49.40625 221.40625 45.8125 219.691406 43.785156 C 219.070312 43.867188 218.441406 43.9375 217.816406 43.980469 C 214.875 44.171875 211.792969 43.921875 209.328125 42.148438 C 205.429688 39.347656 201.105469 33.859375 201.476562 28.71875 C 198.039062 29.664062 194.257812 29.917969 191.039062 29.6875 C 186.511719 29.371094 180.78125 28.050781 177.601562 24.480469 C 177.132812 25.257812 176.550781 25.957031 175.804688 26.550781 C 173.175781 28.636719 169.808594 29.777344 166.449219 29.902344 C 161.390625 30.09375 152.84375 27.570312 149.390625 32.539062 C 149.28125 32.695312 149.105469 32.683594 149 32.585938 C 148.605469 33.875 147.851562 35.039062 146.644531 36.03125 C 143.710938 38.429688 135.789062 41.140625 138.542969 46.234375 C 138.667969 46.46875 138.351562 46.632812 138.195312 46.4375 C 135.492188 42.933594 140.214844 39.203125 142.933594 37.621094 C 144.636719 36.628906 146.746094 35.5625 147.773438 33.792969 C 148.867188 31.914062 148.601562 29.917969 148.339844 27.855469 C 148.292969 27.457031 148.941406 27.382812 149.027344 27.761719 C 149.367188 29.234375 149.4375 30.648438 149.164062 31.953125 C 151.808594 27.65625 159.523438 28.941406 163.640625 29.128906 C 167.203125 29.289062 170.957031 28.878906 174.015625 26.878906 C 176.054688 25.542969 177.394531 23.867188 178.007812 21.476562 C 178.441406 19.785156 178.644531 18.003906 179.359375 16.398438 C 179.519531 16.03125 180.066406 16.304688 179.980469 16.660156 C 179.414062 19.0625 179.046875 21.773438 177.875 23.996094 C 180.039062 25.453125 181.976562 26.894531 184.53125 27.707031 C 186.976562 28.484375 189.519531 28.917969 192.085938 28.945312 C 194.675781 28.96875 197.273438 28.730469 199.792969 28.117188 C 202.109375 27.558594 204.207031 26.617188 206.441406 25.832031 C 206.832031 25.699219 207.035156 26.269531 206.710938 26.476562 C 205.316406 27.375 203.703125 28.0625 201.992188 28.570312 C 202.53125 33.925781 205.972656 39.746094 210.894531 42.207031 C 216.808594 45.164062 223.132812 41.015625 229.179688 42.1875 C 229.558594 42.257812 229.4375 42.796875 229.09375 42.820312 C 227.023438 42.96875 225.003906 42.984375 222.9375 43.300781 C 222.117188 43.425781 221.292969 43.558594 220.464844 43.679688 C 221.679688 45.238281 222.035156 47.851562 222.355469 49.621094 C 222.941406 52.855469 224.125 55.9375 226.582031 58.226562 C 232.363281 63.621094 239.6875 65.578125 247.335938 66.386719 C 247.789062 66.4375 247.796875 67.058594 247.335938 67.097656 C 245.480469 67.25 243.527344 67.046875 241.605469 66.636719 C 241.292969 68.644531 240.355469 70.425781 240.289062 72.503906 C 240.230469 74.445312 240.609375 76.199219 241.582031 77.894531 C 243.140625 80.59375 244.964844 83.039062 246.875 85.496094 C 249.867188 89.339844 252.6875 94.578125 247.734375 98.210938 Z M 214.410156 59.90625 C 215.371094 61.355469 216.171875 62.933594 217.214844 64.328125 C 218.523438 66.082031 220.160156 67.199219 222.1875 67.992188 C 222.425781 68.085938 222.335938 68.425781 222.082031 68.375 C 217.71875 67.542969 215.902344 63.722656 214.015625 60.136719 C 213.878906 59.871094 214.246094 59.660156 214.410156 59.90625 Z M 222.253906 76.074219 C 220.6875 75.160156 218.6875 74.792969 217.003906 74.097656 C 215.441406 73.457031 213.878906 72.769531 212.410156 71.929688 C 210.285156 70.710938 208.285156 69.367188 207.917969 66.78125 C 207.738281 65.496094 207.992188 64.183594 208.050781 62.902344 C 208.136719 61.164062 208.210938 59.417969 208.125 57.683594 C 207.933594 53.730469 207.09375 49.796875 204.503906 46.679688 C 200.4375 41.78125 194.429688 38.765625 188.425781 36.921875 C 183.398438 35.375 175.996094 33.566406 171.433594 37.15625 C 171.179688 37.351562 170.828125 37.027344 171.074219 36.796875 C 174.8125 33.261719 181.828125 34.363281 186.320312 35.558594 C 192.246094 37.136719 198.351562 39.574219 202.898438 43.824219 C 205.285156 46.058594 207.230469 48.683594 208.082031 51.882812 C 209.027344 55.453125 209.136719 59.230469 208.855469 62.902344 C 208.75 64.300781 208.40625 65.976562 208.835938 67.347656 C 209.4375 69.257812 211.148438 70.320312 212.820312 71.234375 C 214.609375 72.210938 216.472656 73.054688 218.375 73.792969 C 219.804688 74.34375 221.269531 74.722656 222.496094 75.652344 C 222.738281 75.835938 222.527344 76.234375 222.253906 76.074219 Z M 149.75 46.695312 C 147.144531 47.792969 143.886719 49.023438 141.011719 48.953125 C 140.757812 48.949219 140.730469 48.613281 140.953125 48.527344 C 143.453125 47.589844 146.191406 47.371094 148.703125 46.386719 C 151.359375 45.347656 154.210938 43.894531 155.484375 41.195312 C 155.574219 40.996094 155.925781 41.140625 155.839844 41.347656 C 154.757812 43.988281 152.300781 45.621094 149.75 46.695312 Z M 134.515625 36.628906 C 133.753906 37.972656 133.738281 39.273438 133.960938 40.773438 C 133.988281 40.972656 133.730469 41.050781 133.65625 40.855469 C 132.542969 37.800781 134.585938 34.433594 137.605469 33.460938 C 137.792969 33.402344 137.863281 33.648438 137.730469 33.75 C 136.566406 34.632812 135.261719 35.304688 134.515625 36.628906 Z M 160.210938 24.34375 C 165.308594 24.472656 170.207031 21.78125 173.792969 18.390625 C 173.910156 18.28125 174.089844 18.417969 174.015625 18.5625 C 172.898438 20.675781 170.074219 22.074219 167.976562 22.957031 C 165.535156 23.984375 162.886719 24.757812 160.210938 24.636719 C 160.023438 24.628906 160.019531 24.339844 160.210938 24.34375 Z M 188.140625 19.066406 C 192.058594 20.925781 195.632812 21.632812 199.78125 20.054688 C 199.914062 20.003906 199.988281 20.207031 199.875 20.277344 C 195.96875 22.644531 191.75 21.269531 187.96875 19.359375 C 187.769531 19.257812 187.945312 18.96875 188.140625 19.066406 Z M 210.289062 30.101562 C 214.554688 33.878906 219.53125 34.648438 225.011719 34.160156 C 225.222656 34.140625 225.242188 34.445312 225.058594 34.503906 C 219.90625 36.210938 213.808594 33.9375 209.980469 30.40625 C 209.773438 30.21875 210.078125 29.917969 210.289062 30.101562 Z M 240.375 53.128906 C 240.589844 53.15625 240.589844 53.441406 240.375 53.464844 C 235.6875 53.957031 228.195312 52.339844 227.246094 46.863281 C 227.210938 46.644531 227.527344 46.550781 227.582031 46.769531 C 228.980469 52.460938 235.6875 52.585938 240.375 53.128906 Z M 249.734375 66.140625 C 249.832031 61.554688 250.496094 55.441406 249.308594 53.296875 C 246.070312 46.417969 241.335938 43.46875 234.148438 42.230469 C 235.6875 38.746094 236.621094 33.136719 224.253906 25.210938 C 218.183594 21.648438 212.210938 21.132812 208.757812 22.617188 C 208.78125 22.558594 208.820312 22.523438 208.898438 22.523438 C 208.695312 9.617188 185.890625 8.410156 181.621094 13.386719 C 169.089844 4.089844 151.550781 13.738281 146.050781 23.53125 C 142.199219 24.1875 138.789062 22.503906 131.105469 27.542969 C 124.117188 32.132812 119.5625 46.113281 127.257812 52.628906 C 128.09375 51.804688 129.011719 51.164062 130.015625 50.914062 C 134.082031 50.914062 141.832031 54.300781 146.136719 56.746094 C 147.210938 56.527344 148.207031 56.335938 149.230469 56.335938 C 159.3125 55.617188 164.539062 53.417969 168.140625 44.058594 C 171.023438 51.980469 180.191406 49.859375 187.394531 52.015625 C 196.035156 54.898438 198.195312 57.058594 200.355469 64.976562 C 203.234375 75.0625 204.292969 73.753906 212.210938 78.074219 C 215.75 84.226562 209.253906 94.339844 212.949219 96.3125 C 216.640625 98.28125 219.753906 88.292969 229.15625 88.023438 C 232.65625 87.921875 235.433594 87.445312 237.601562 86.636719 C 239.429688 88.441406 240.433594 91.195312 240.324219 93.902344 C 240.089844 99.957031 229.300781 107.890625 226.039062 112.300781 C 225.773438 112.660156 225.476562 112.984375 225.167969 113.289062 C 224.0625 116.648438 222.703125 119.8125 221.101562 122.714844 C 229.011719 118.398438 236.609375 112.386719 242.160156 105.136719 C 249.859375 102.074219 257.949219 100.992188 260.535156 89.675781 C 262.992188 79.433594 257.882812 71.496094 249.734375 66.140625" stroke-linecap="round" />
</g>
<g transform="matrix(1.35 0 0 1.35 223.64 236.35)" id="-6jSonZdNxVKhuDtOOaXZ"  >
<path style="stroke: none; stroke-width: 1; stroke-dasharray: none; stroke-linecap: butt; stroke-dashoffset: 0; stroke-linejoin: miter; stroke-miterlimit: 4; fill: rgb(0,0,0); fill-rule: nonzero; opacity: 1;" vector-effect="non-scaling-stroke"  transform=" translate(-167.98, -179.34)" d="M 175.132812 180.675781 C 174.335938 179.757812 172.945312 179.433594 171.835938 179.101562 C 167.476562 177.789062 163.429688 175.949219 159.386719 173.964844 C 159.328125 174.207031 159.269531 174.460938 159.210938 174.710938 C 162.351562 176.285156 165.519531 177.804688 168.851562 178.949219 C 170.488281 179.515625 172.28125 179.816406 173.832031 180.605469 C 175.238281 181.316406 175.640625 183.070312 176.027344 184.453125 C 176.15625 184.910156 176.863281 184.71875 176.734375 184.261719 C 176.378906 182.988281 176.007812 181.695312 175.132812 180.675781" stroke-linecap="round" />
</g>
<g transform="matrix(1.35 0 0 1.35 280.3 236.48)" id="PjHpaYOBj3TiCOWqRrt-Y"  >
<path style="stroke: none; stroke-width: 1; stroke-dasharray: none; stroke-linecap: butt; stroke-dashoffset: 0; stroke-linejoin: miter; stroke-miterlimit: 4; fill: rgb(0,0,0); fill-rule: nonzero; opacity: 1;" vector-effect="non-scaling-stroke"  transform=" translate(-209.87, -179.43)" d="M 207.753906 179.195312 C 204.160156 180.265625 199.6875 180.929688 198.402344 185.0625 C 198.355469 185.214844 198.589844 185.316406 198.667969 185.171875 C 201.125 180.574219 206.292969 180.609375 210.65625 178.863281 C 213.285156 177.808594 215.882812 176.683594 218.421875 175.433594 C 219.304688 175 220.230469 174.695312 221.144531 174.355469 C 221.210938 174.109375 221.28125 173.863281 221.347656 173.613281 C 219.84375 174.273438 218.199219 174.757812 216.796875 175.433594 C 213.882812 176.84375 210.859375 178.269531 207.753906 179.195312" stroke-linecap="round" />
</g>
<g transform="matrix(1.35 0 0 1.35 87.4 282.33)" id="bJOTxKiD0WWSkr83IodIu"  >
<path style="stroke: none; stroke-width: 1; stroke-dasharray: none; stroke-linecap: butt; stroke-dashoffset: 0; stroke-linejoin: miter; stroke-miterlimit: 4; fill: rgb(0,0,0); fill-rule: nonzero; opacity: 1;" vector-effect="non-scaling-stroke"  transform=" translate(-67.25, -213.33)" d="M 82.03125 184.640625 C 80.042969 195.796875 76.839844 206.761719 71.941406 217.003906 C 69.503906 222.089844 66.585938 226.964844 63.101562 231.414062 C 59.914062 235.484375 56.152344 238.597656 52.195312 241.871094 C 52.054688 241.988281 52.234375 242.203125 52.386719 242.117188 C 56.78125 239.769531 60.4375 235.652344 63.5 231.808594 C 66.929688 227.5 69.742188 222.71875 72.167969 217.789062 C 77.269531 207.433594 80.59375 196.121094 82.363281 184.730469 C 82.394531 184.519531 82.070312 184.421875 82.03125 184.640625" stroke-linecap="round" />
</g>
<g transform="matrix(1.35 0 0 1.35 166.3 129.87)" id="E7XI86Eyqzg7Hw4zfP1_1"  >
<path style="stroke: none; stroke-width: 1; stroke-dasharray: none; stroke-linecap: butt; stroke-dashoffset: 0; stroke-linejoin: miter; stroke-miterlimit: 4; fill: rgb(0,0,0); fill-rule: nonzero; opacity: 1;" vector-effect="non-scaling-stroke"  transform=" translate(-125.59, -100.61)" d="M 131.230469 98.144531 C 127.445312 95.410156 122.230469 94.734375 117.6875 94.792969 C 117.410156 94.796875 117.414062 95.214844 117.6875 95.21875 C 122.0625 95.332031 126.417969 95.9375 130.277344 98.148438 C 133.375 99.925781 132.863281 103.191406 133.148438 106.214844 C 133.175781 106.511719 133.582031 106.511719 133.609375 106.214844 C 133.867188 103.464844 133.6875 99.921875 131.230469 98.144531" stroke-linecap="round" />
</g>
<g transform="matrix(1.35 0 0 1.35 183.75 108.07)" id="pExjUsjOm_FOxwRdKtS3x"  >
<path style="stroke: none; stroke-width: 1; stroke-dasharray: none; stroke-linecap: butt; stroke-dashoffset: 0; stroke-linejoin: miter; stroke-miterlimit: 4; fill: rgb(0,0,0); fill-rule: nonzero; opacity: 1;" vector-effect="non-scaling-stroke"  transform=" translate(-138.49, -84.49)" d="M 146.925781 72.136719 C 145.824219 75.179688 143.632812 77.667969 141.578125 80.101562 C 139.953125 82.019531 138.515625 84.003906 137.03125 86.023438 C 135.566406 88.023438 133.789062 89.800781 132.238281 91.734375 C 131.050781 93.214844 129.742188 94.894531 129.480469 96.832031 C 129.449219 97.042969 129.769531 97.140625 129.808594 96.917969 C 130.222656 94.621094 132.0625 92.640625 133.527344 90.925781 C 134.925781 89.285156 136.425781 87.726562 137.710938 85.992188 C 139.460938 83.625 141.257812 81.351562 143.152344 79.089844 C 144.882812 77.023438 146.550781 74.847656 147.480469 72.289062 C 147.605469 71.941406 147.050781 71.789062 146.925781 72.136719" stroke-linecap="round" />
</g>
<g transform="matrix(1.35 0 0 1.35 176.99 70.52)" id="OHzYZ12ARaFp82JulB67D"  >
<path style="stroke: none; stroke-width: 1; stroke-dasharray: none; stroke-linecap: butt; stroke-dashoffset: 0; stroke-linejoin: miter; stroke-miterlimit: 4; fill: rgb(0,0,0); fill-rule: nonzero; opacity: 1;" vector-effect="non-scaling-stroke"  transform=" translate(-133.49, -56.73)" d="M 138.980469 55.214844 C 137.390625 54.285156 131.609375 52.390625 130.519531 52.523438 C 129.222656 52.683594 128.625 53.84375 127.777344 54.652344 C 126.15625 56.191406 126.652344 56.339844 128.523438 57.304688 C 130.019531 58.125 131.386719 58.820312 132.757812 59.507812 C 133.753906 59.808594 135.371094 61.011719 136.371094 60.9375 C 137.613281 60.875 138.484375 58.925781 139.234375 58.09375 C 140.230469 56.644531 140.851562 56.300781 138.980469 55.214844" stroke-linecap="round" />
</g>
<g transform="matrix(1.35 0 0 1.35 151.71 83.25)" id="fs0YJZV6Hkr5fkJeDc3IP"  >
<path style="stroke: none; stroke-width: 1; stroke-dasharray: none; stroke-linecap: butt; stroke-dashoffset: 0; stroke-linejoin: miter; stroke-miterlimit: 4; fill: rgb(0,0,0); fill-rule: nonzero; opacity: 1;" vector-effect="non-scaling-stroke"  transform=" translate(-114.8, -66.14)" d="M 121.921875 67.855469 C 126.761719 62.679688 126.53125 57.578125 124.664062 56.769531 C 122.796875 55.960938 119.371094 55.773438 114.105469 58.65625 C 107.183594 62.449219 101.867188 69.324219 104.308594 74.0625 C 107.070312 79.078125 116.570312 73.585938 121.921875 67.855469" stroke-linecap="round" />
</g>
<g transform="matrix(1.35 0 0 1.35 160.73 89.67)" id="3I-D0ZTXu06XcJ8ZomyGf"  >
<path style="stroke: none; stroke-width: 1; stroke-dasharray: none; stroke-linecap: butt; stroke-dashoffset: 0; stroke-linejoin: miter; stroke-miterlimit: 4; fill: rgb(0,0,0); fill-rule: nonzero; opacity: 1;" vector-effect="non-scaling-stroke"  transform=" translate(-121.47, -70.89)" d="M 131.933594 62.167969 C 131.808594 61.796875 131.226562 61.949219 131.339844 62.332031 C 132.707031 66.796875 128.445312 71.132812 125.339844 73.761719 C 121.226562 77.242188 116.25 79.402344 110.835938 79.550781 C 110.664062 79.554688 110.664062 79.820312 110.835938 79.820312 C 116.585938 79.820312 121.679688 77.511719 126.066406 73.886719 C 129.21875 71.277344 133.414062 66.632812 131.933594 62.167969" stroke-linecap="round" />
</g>
<g transform="matrix(1.35 0 0 1.35 191.84 78.58)" id="O05cYaD4bA9uOG6YjzPFI"  >
<path style="stroke: none; stroke-width: 1; stroke-dasharray: none; stroke-linecap: butt; stroke-dashoffset: 0; stroke-linejoin: miter; stroke-miterlimit: 4; fill: rgb(0,0,0); fill-rule: nonzero; opacity: 1;" vector-effect="non-scaling-stroke"  transform=" translate(-144.47, -62.69)" d="M 146.316406 64.097656 C 144.253906 62.96875 141.929688 62.242188 139.808594 61.242188 C 139.628906 61.15625 139.464844 61.421875 139.652344 61.515625 C 141.820312 62.589844 144.058594 63.386719 146.121094 64.535156 C 146.140625 64.574219 146.179688 64.597656 146.222656 64.59375 C 147.21875 65.15625 148.179688 65.796875 149.066406 66.613281 C 149.242188 66.769531 149.484375 66.527344 149.324219 66.355469 C 148.507812 65.488281 147.566406 64.804688 146.558594 64.230469 C 147.628906 62.902344 149.410156 60.148438 148.136719 58.792969 C 148.074219 58.726562 147.972656 58.699219 147.878906 58.726562 C 147.851562 58.734375 147.816406 58.742188 147.789062 58.75 C 147.730469 58.765625 147.683594 58.824219 147.683594 58.886719 C 147.683594 59.253906 147.980469 59.496094 147.992188 59.894531 C 148.015625 60.460938 147.773438 61.054688 147.574219 61.578125 C 147.25 62.4375 146.792969 63.296875 146.316406 64.097656" stroke-linecap="round" />
</g>
<g transform="matrix(1.35 0 0 1.35 421.84 427.52)" id="EU0Vwgcpn_Q3lGXLXwYrb"  >
<path style="stroke: none; stroke-width: 1; stroke-dasharray: none; stroke-linecap: butt; stroke-dashoffset: 0; stroke-linejoin: miter; stroke-miterlimit: 4; fill: rgb(0,0,0); fill-rule: nonzero; opacity: 1;" vector-effect="non-scaling-stroke"  transform=" translate(-314.52, -320.68)" d="M 325.304688 325.613281 C 317.75 322.980469 310.941406 319.089844 303.933594 315.296875 C 303.660156 315.148438 303.417969 315.558594 303.691406 315.714844 C 310.515625 319.625 317.515625 324.023438 325.171875 326.089844 C 325.480469 326.167969 325.597656 325.714844 325.304688 325.613281" stroke-linecap="round" />
</g>
<g transform="matrix(1.35 0 0 1.35 354.16 314.36)" id="KpwZ6A_UK8ORmOfhxKWiC"  >
<path style="stroke: none; stroke-width: 1; stroke-dasharray: none; stroke-linecap: butt; stroke-dashoffset: 0; stroke-linejoin: miter; stroke-miterlimit: 4; fill: rgb(0,0,0); fill-rule: nonzero; opacity: 1;" vector-effect="non-scaling-stroke"  transform=" translate(-264.48, -237.01)" d="M 260.746094 226.757812 C 260.648438 226.59375 260.371094 226.703125 260.433594 226.886719 C 261.625 230.507812 263.160156 234.042969 264.449219 237.628906 C 264.921875 238.933594 265.375 240.214844 265.992188 241.457031 C 266.902344 243.308594 267.960938 245.066406 268.167969 247.164062 C 268.191406 247.394531 268.542969 247.40625 268.539062 247.164062 C 268.503906 243.972656 266.277344 241.019531 265.238281 238.097656 C 263.890625 234.324219 262.757812 230.242188 260.746094 226.757812" stroke-linecap="round" />
</g>
</svg>